G04*
G04 #@! TF.GenerationSoftware,Altium Limited,Altium Designer,23.1.1 (15)*
G04*
G04 Layer_Color=8388736*
%FSLAX42Y42*%
%MOMM*%
G71*
G04*
G04 #@! TF.SameCoordinates,2A6C1220-FB5B-44CC-9D41-84C089C77491*
G04*
G04*
G04 #@! TF.FilePolarity,Negative*
G04*
G01*
G75*
%ADD23R,1.30X1.85*%
%ADD24R,1.25X1.15*%
%ADD25R,1.75X1.10*%
%ADD26R,1.10X1.75*%
%ADD27R,1.42X1.11*%
%ADD28R,1.10X1.60*%
%ADD29R,2.40X1.60*%
%ADD30C,0.20*%
%ADD31R,1.40X1.40*%
%ADD32C,1.40*%
%ADD33R,1.57X1.57*%
%ADD34R,1.30X1.30*%
%ADD35C,1.30*%
%ADD36C,2.15*%
G04:AMPARAMS|DCode=37|XSize=2.15mm|YSize=2.15mm|CornerRadius=0.59mm|HoleSize=0mm|Usage=FLASHONLY|Rotation=270.000|XOffset=0mm|YOffset=0mm|HoleType=Round|Shape=RoundedRectangle|*
%AMROUNDEDRECTD37*
21,1,2.15,0.98,0,0,270.0*
21,1,0.98,2.15,0,0,270.0*
1,1,1.18,-0.49,-0.49*
1,1,1.18,-0.49,0.49*
1,1,1.18,0.49,0.49*
1,1,1.18,0.49,-0.49*
%
%ADD37ROUNDEDRECTD37*%
%ADD38C,1.70*%
%ADD39C,1.57*%
%ADD40C,0.70*%
D23*
X5742Y1300D02*
D03*
X5457D02*
D03*
X5742Y4300D02*
D03*
X5457D02*
D03*
D24*
X3100Y4800D02*
D03*
Y4655D02*
D03*
X2800Y4473D02*
D03*
Y4327D02*
D03*
X3100Y1800D02*
D03*
Y1655D02*
D03*
X2800Y1473D02*
D03*
Y1327D02*
D03*
X3100Y1000D02*
D03*
Y1145D02*
D03*
X3100Y3991D02*
D03*
Y4136D02*
D03*
D25*
X900Y4500D02*
D03*
Y4235D02*
D03*
Y1500D02*
D03*
Y1235D02*
D03*
X5000Y3565D02*
D03*
Y3300D02*
D03*
Y5233D02*
D03*
Y4968D02*
D03*
X4600Y5233D02*
D03*
Y4967D02*
D03*
X5000Y335D02*
D03*
Y600D02*
D03*
X4600Y1967D02*
D03*
Y2233D02*
D03*
X5000Y1968D02*
D03*
Y2233D02*
D03*
D26*
X1168Y4700D02*
D03*
X1433D02*
D03*
X1168Y1700D02*
D03*
X1433D02*
D03*
D27*
X4600Y3627D02*
D03*
Y3300D02*
D03*
X5500Y300D02*
D03*
Y627D02*
D03*
X5900D02*
D03*
Y300D02*
D03*
X4600Y337D02*
D03*
Y664D02*
D03*
X5900Y3627D02*
D03*
Y3300D02*
D03*
X5500D02*
D03*
Y3627D02*
D03*
D28*
X5761Y4804D02*
D03*
X5760Y1800D02*
D03*
D29*
X5506Y4804D02*
D03*
X5505Y1800D02*
D03*
D30*
X250Y5475D02*
D03*
X6868Y231D02*
D03*
D31*
X1715Y1764D02*
D03*
X1719Y4781D02*
D03*
D32*
X1715Y1510D02*
D03*
Y1256D02*
D03*
Y1002D02*
D03*
X2477D02*
D03*
Y1256D02*
D03*
Y1510D02*
D03*
Y1764D02*
D03*
X2481Y4781D02*
D03*
Y4527D02*
D03*
Y4273D02*
D03*
Y4019D02*
D03*
X1719D02*
D03*
Y4273D02*
D03*
Y4527D02*
D03*
D33*
X500D02*
D03*
Y1527D02*
D03*
X6400Y727D02*
D03*
X6400Y3727D02*
D03*
D34*
X3900Y4050D02*
D03*
Y4750D02*
D03*
X3900Y1750D02*
D03*
Y1050D02*
D03*
D35*
X3900Y5250D02*
D03*
X3900Y2250D02*
D03*
Y550D02*
D03*
X3900Y3550D02*
D03*
D36*
X6370Y1550D02*
D03*
Y1900D02*
D03*
X6370Y4550D02*
D03*
Y4900D02*
D03*
D37*
X6370Y2250D02*
D03*
X6370Y5250D02*
D03*
D38*
X5000Y1246D02*
D03*
Y1500D02*
D03*
X1300Y1046D02*
D03*
Y1300D02*
D03*
X5000Y4300D02*
D03*
Y4554D02*
D03*
X1300Y4046D02*
D03*
Y4300D02*
D03*
D39*
X6400Y473D02*
D03*
X500Y1273D02*
D03*
Y4273D02*
D03*
X6400Y3473D02*
D03*
D40*
X5457Y2047D02*
D03*
X5375Y4988D02*
D03*
M02*
