G04*
G04 #@! TF.GenerationSoftware,Altium Limited,Altium Designer,23.1.1 (15)*
G04*
G04 Layer_Color=32896*
%FSLAX42Y42*%
%MOMM*%
G71*
G04*
G04 #@! TF.SameCoordinates,2A6C1220-FB5B-44CC-9D41-84C089C77491*
G04*
G04*
G04 #@! TF.FilePolarity,Positive*
G04*
G01*
G75*
%ADD11C,0.15*%
%ADD46C,0.12*%
D11*
X6475Y2000D02*
Y2050D01*
Y2025D01*
X6350D01*
X6325Y2050D01*
Y2075D01*
X6350Y2100D01*
X6475Y1950D02*
X6350D01*
X6325Y1925D01*
Y1875D01*
X6350Y1850D01*
X6475D01*
Y1800D02*
X6325D01*
Y1725D01*
X6350Y1700D01*
X6375D01*
X6400Y1725D01*
Y1800D01*
Y1725D01*
X6425Y1700D01*
X6450D01*
X6475Y1725D01*
Y1800D01*
X6475Y5000D02*
Y5050D01*
Y5025D01*
X6350D01*
X6325Y5050D01*
Y5075D01*
X6350Y5100D01*
X6475Y4950D02*
X6350D01*
X6325Y4925D01*
Y4875D01*
X6350Y4850D01*
X6475D01*
Y4800D02*
Y4700D01*
Y4750D01*
X6325D01*
D46*
X4950Y1656D02*
X5050D01*
Y1606D01*
X5033Y1590D01*
X5000D01*
X4983Y1606D01*
Y1656D01*
X4950Y1540D02*
Y1506D01*
X4967Y1490D01*
X5000D01*
X5017Y1506D01*
Y1540D01*
X5000Y1556D01*
X4967D01*
X4950Y1540D01*
X5017Y1456D02*
X4967D01*
X4950Y1440D01*
X4967Y1423D01*
X4950Y1406D01*
X4967Y1390D01*
X5017D01*
X4950Y1306D02*
Y1340D01*
X4967Y1356D01*
X5000D01*
X5017Y1340D01*
Y1306D01*
X5000Y1290D01*
X4983D01*
Y1356D01*
X5017Y1256D02*
X4950D01*
X4983D01*
X5000Y1240D01*
X5017Y1223D01*
Y1206D01*
X4950Y1090D02*
Y1156D01*
X5017Y1090D01*
X5033D01*
X5050Y1106D01*
Y1140D01*
X5033Y1156D01*
X1350Y1423D02*
X1367Y1440D01*
Y1473D01*
X1350Y1490D01*
X1333D01*
X1317Y1473D01*
Y1440D01*
X1300Y1423D01*
X1283D01*
X1267Y1440D01*
Y1473D01*
X1283Y1490D01*
X1267Y1390D02*
Y1356D01*
Y1373D01*
X1333D01*
Y1390D01*
X1233Y1273D02*
Y1256D01*
X1250Y1240D01*
X1333D01*
Y1290D01*
X1317Y1306D01*
X1283D01*
X1267Y1290D01*
Y1240D01*
Y1206D02*
X1333D01*
Y1156D01*
X1317Y1140D01*
X1267D01*
X1333Y1090D02*
Y1056D01*
X1317Y1040D01*
X1267D01*
Y1090D01*
X1283Y1106D01*
X1300Y1090D01*
Y1040D01*
X1267Y1006D02*
Y973D01*
Y990D01*
X1367D01*
Y1006D01*
X1267Y856D02*
Y923D01*
X1333Y856D01*
X1350D01*
X1367Y873D01*
Y906D01*
X1350Y923D01*
X4950Y4694D02*
X5050D01*
Y4644D01*
X5033Y4627D01*
X5000D01*
X4983Y4644D01*
Y4694D01*
X4950Y4577D02*
Y4544D01*
X4967Y4527D01*
X5000D01*
X5017Y4544D01*
Y4577D01*
X5000Y4594D01*
X4967D01*
X4950Y4577D01*
X5017Y4494D02*
X4967D01*
X4950Y4477D01*
X4967Y4460D01*
X4950Y4444D01*
X4967Y4427D01*
X5017D01*
X4950Y4344D02*
Y4377D01*
X4967Y4394D01*
X5000D01*
X5017Y4377D01*
Y4344D01*
X5000Y4327D01*
X4983D01*
Y4394D01*
X5017Y4294D02*
X4950D01*
X4983D01*
X5000Y4277D01*
X5017Y4260D01*
Y4244D01*
X4950Y4194D02*
Y4160D01*
Y4177D01*
X5050D01*
X5033Y4194D01*
X1350Y4406D02*
X1367Y4423D01*
Y4456D01*
X1350Y4473D01*
X1333D01*
X1317Y4456D01*
Y4423D01*
X1300Y4406D01*
X1283D01*
X1267Y4423D01*
Y4456D01*
X1283Y4473D01*
X1267Y4373D02*
Y4340D01*
Y4356D01*
X1333D01*
Y4373D01*
X1233Y4256D02*
Y4240D01*
X1250Y4223D01*
X1333D01*
Y4273D01*
X1317Y4290D01*
X1283D01*
X1267Y4273D01*
Y4223D01*
Y4190D02*
X1333D01*
Y4140D01*
X1317Y4123D01*
X1267D01*
X1333Y4073D02*
Y4040D01*
X1317Y4023D01*
X1267D01*
Y4073D01*
X1283Y4090D01*
X1300Y4073D01*
Y4023D01*
X1267Y3990D02*
Y3956D01*
Y3973D01*
X1367D01*
Y3990D01*
X1267Y3906D02*
Y3873D01*
Y3890D01*
X1367D01*
X1350Y3906D01*
M02*
