G04*
G04 #@! TF.GenerationSoftware,Altium Limited,Altium Designer,23.1.1 (15)*
G04*
G04 Layer_Color=32768*
%FSLAX42Y42*%
%MOMM*%
G71*
G04*
G04 #@! TF.SameCoordinates,2A6C1220-FB5B-44CC-9D41-84C089C77491*
G04*
G04*
G04 #@! TF.FilePolarity,Positive*
G04*
G01*
G75*
%ADD15C,0.10*%
D15*
X5113Y1214D02*
G03*
X4887Y1214I-113J162D01*
G01*
X1413Y1014D02*
G03*
X1187Y1014I-113J162D01*
G01*
X5113Y4268D02*
G03*
X4887Y4268I-113J162D01*
G01*
X1413Y4014D02*
G03*
X1187Y4014I-113J162D01*
G01*
X6770Y1375D02*
Y2425D01*
X6030Y1375D02*
Y2425D01*
Y1375D02*
X6770D01*
X6081Y2465D02*
X6146D01*
X6081D02*
X6088Y2425D01*
X6138D02*
X6146Y2465D01*
X6030Y2425D02*
X6088D01*
X6654Y2465D02*
X6662Y2425D01*
X6712D02*
X6720Y2465D01*
X6654D02*
X6720D01*
X6712Y2425D02*
X6770D01*
X6138D02*
X6662D01*
X4887Y1214D02*
X5113D01*
X1187Y1014D02*
X1413D01*
X6770Y4375D02*
Y5425D01*
X6030Y4375D02*
Y5425D01*
Y4375D02*
X6770D01*
X6081Y5465D02*
X6146D01*
X6081D02*
X6088Y5425D01*
X6138D02*
X6146Y5465D01*
X6030Y5425D02*
X6088D01*
X6655Y5465D02*
X6662Y5425D01*
X6712D02*
X6720Y5465D01*
X6655D02*
X6720D01*
X6712Y5425D02*
X6770D01*
X6138D02*
X6662D01*
X4887Y4268D02*
X5113D01*
X1187Y4014D02*
X1413D01*
M02*
