G04*
G04 #@! TF.GenerationSoftware,Altium Limited,Altium Designer,23.1.1 (15)*
G04*
G04 Layer_Color=32768*
%FSLAX42Y42*%
%MOMM*%
G71*
G04*
G04 #@! TF.SameCoordinates,2A6C1220-FB5B-44CC-9D41-84C089C77491*
G04*
G04*
G04 #@! TF.FilePolarity,Positive*
G04*
G01*
G75*
%ADD15C,0.10*%
%ADD45C,0.05*%
D15*
X5600Y1250D02*
Y1350D01*
X5550Y1300D02*
X5650D01*
X3100Y4682D02*
Y4772D01*
X3055Y4728D02*
X3145D01*
X2800Y4355D02*
Y4445D01*
X2755Y4400D02*
X2845D01*
X900Y4317D02*
Y4417D01*
X850Y4367D02*
X950D01*
X1250Y4700D02*
X1350D01*
X1300Y4650D02*
Y4750D01*
X3100Y1682D02*
Y1772D01*
X3055Y1727D02*
X3145D01*
X2800Y1355D02*
Y1445D01*
X2755Y1400D02*
X2845D01*
X900Y1317D02*
Y1418D01*
X850Y1367D02*
X950D01*
X1250Y1700D02*
X1350D01*
X1300Y1650D02*
Y1750D01*
X5000Y3383D02*
Y3483D01*
X4950Y3433D02*
X5050D01*
X4550Y3464D02*
X4650D01*
X4600Y3414D02*
Y3514D01*
X5000Y5050D02*
Y5150D01*
X4950Y5100D02*
X5050D01*
X4600Y5050D02*
Y5150D01*
X4550Y5100D02*
X4650D01*
X5551Y4804D02*
X5651D01*
X5601Y4754D02*
Y4854D01*
X5500Y414D02*
Y514D01*
X5450Y464D02*
X5550D01*
X5900Y414D02*
Y514D01*
X5850Y464D02*
X5950D01*
X4600Y450D02*
Y550D01*
X4550Y500D02*
X4650D01*
X4950Y468D02*
X5050D01*
X5000Y418D02*
Y518D01*
X3055Y1073D02*
X3145D01*
X3100Y1027D02*
Y1118D01*
X5600Y1750D02*
Y1850D01*
X5550Y1800D02*
X5650D01*
X4550Y2100D02*
X4650D01*
X4600Y2050D02*
Y2150D01*
X4950Y2100D02*
X5050D01*
X5000Y2050D02*
Y2150D01*
X5600Y4250D02*
Y4350D01*
X5550Y4300D02*
X5650D01*
X5900Y3414D02*
Y3514D01*
X5850Y3464D02*
X5950D01*
X5500Y3414D02*
Y3514D01*
X5450Y3464D02*
X5550D01*
X3055Y4064D02*
X3144D01*
X3100Y4019D02*
Y4109D01*
D45*
X5375Y1190D02*
X5825D01*
X5375Y1410D02*
X5825D01*
Y1190D02*
Y1410D01*
X5375Y1190D02*
Y1410D01*
X2995Y4897D02*
X3205D01*
X2995Y4558D02*
X3205D01*
Y4897D01*
X2995Y4558D02*
Y4897D01*
X2695Y4570D02*
X2905D01*
X2695Y4230D02*
X2905D01*
Y4570D01*
X2695Y4230D02*
Y4570D01*
X805Y4558D02*
X995D01*
X805Y4177D02*
X995D01*
Y4558D01*
X805Y4177D02*
Y4558D01*
X1110Y4605D02*
Y4795D01*
X1490Y4605D02*
Y4795D01*
X1110D02*
X1490D01*
X1110Y4605D02*
X1490D01*
X2995Y1898D02*
X3205D01*
X2995Y1557D02*
X3205D01*
Y1898D01*
X2995Y1557D02*
Y1898D01*
X2695Y1570D02*
X2905D01*
X2695Y1230D02*
X2905D01*
Y1570D01*
X2695Y1230D02*
Y1570D01*
X805Y1558D02*
X995D01*
X805Y1177D02*
X995D01*
Y1558D01*
X805Y1177D02*
Y1558D01*
X1110Y1605D02*
Y1795D01*
X1490Y1605D02*
Y1795D01*
X1110D02*
X1490D01*
X1110Y1605D02*
X1490D01*
X4905Y3623D02*
X5095D01*
X4905Y3243D02*
X5095D01*
Y3623D01*
X4905Y3243D02*
Y3623D01*
X4690Y3245D02*
Y3683D01*
X4510Y3245D02*
X4690D01*
X4510Y3683D02*
X4690D01*
X4510Y3245D02*
Y3683D01*
X4905Y5290D02*
X5095D01*
X4905Y4910D02*
X5095D01*
Y5290D01*
X4905Y4910D02*
Y5290D01*
X4505Y5290D02*
X4695D01*
X4505Y4910D02*
X4695D01*
Y5290D01*
X4505Y4910D02*
Y5290D01*
X5816Y4705D02*
Y4903D01*
X5386Y4705D02*
X5816D01*
X5386Y4903D02*
X5816D01*
X5386Y4705D02*
Y4903D01*
X5410Y245D02*
Y683D01*
X5590D01*
X5410Y245D02*
X5590D01*
Y683D01*
X5990Y245D02*
Y683D01*
X5810Y245D02*
X5990D01*
X5810Y683D02*
X5990D01*
X5810Y245D02*
Y683D01*
X4510Y281D02*
Y719D01*
X4690D01*
X4510Y281D02*
X4690D01*
Y719D01*
X4905Y278D02*
Y658D01*
X5095Y278D02*
Y658D01*
X4905Y278D02*
X5095D01*
X4905Y658D02*
X5095D01*
X2995Y903D02*
Y1243D01*
X3205Y903D02*
Y1243D01*
X2995Y903D02*
X3205D01*
X2995Y1243D02*
X3205D01*
X5385Y1701D02*
Y1899D01*
X5815D01*
X5385Y1701D02*
X5815D01*
Y1899D01*
X4505Y1910D02*
Y2290D01*
X4695Y1910D02*
Y2290D01*
X4505Y1910D02*
X4695D01*
X4505Y2290D02*
X4695D01*
X4905Y1910D02*
Y2290D01*
X5095Y1910D02*
Y2290D01*
X4905Y1910D02*
X5095D01*
X4905Y2290D02*
X5095D01*
X5375Y4190D02*
X5825D01*
X5375Y4410D02*
X5825D01*
Y4190D02*
Y4410D01*
X5375Y4190D02*
Y4410D01*
X5990Y3245D02*
Y3683D01*
X5810Y3245D02*
X5990D01*
X5810Y3683D02*
X5990D01*
X5810Y3245D02*
Y3683D01*
X5410Y3245D02*
Y3683D01*
X5590D01*
X5410Y3245D02*
X5590D01*
Y3683D01*
X2995Y3894D02*
Y4234D01*
X3204Y3894D02*
Y4234D01*
X2995Y3894D02*
X3204D01*
X2995Y4234D02*
X3204D01*
M02*
