G04*
G04 #@! TF.GenerationSoftware,Altium Limited,Altium Designer,23.1.1 (15)*
G04*
G04 Layer_Physical_Order=1*
G04 Layer_Color=255*
%FSLAX42Y42*%
%MOMM*%
G71*
G04*
G04 #@! TF.SameCoordinates,2A6C1220-FB5B-44CC-9D41-84C089C77491*
G04*
G04*
G04 #@! TF.FilePolarity,Positive*
G04*
G01*
G75*
%ADD12C,0.20*%
%ADD16R,1.10X1.65*%
%ADD17R,1.05X0.95*%
%ADD18R,1.55X0.90*%
%ADD19R,0.90X1.55*%
%ADD20R,1.22X0.91*%
%ADD21R,0.90X1.40*%
%ADD22R,2.20X1.40*%
%ADD31R,1.40X1.40*%
%ADD32C,1.40*%
%ADD33R,1.57X1.57*%
%ADD34R,1.30X1.30*%
%ADD35C,1.30*%
%ADD39C,1.57*%
%ADD41C,1.95*%
G04:AMPARAMS|DCode=42|XSize=1.95mm|YSize=1.95mm|CornerRadius=0.49mm|HoleSize=0mm|Usage=FLASHONLY|Rotation=270.000|XOffset=0mm|YOffset=0mm|HoleType=Round|Shape=RoundedRectangle|*
%AMROUNDEDRECTD42*
21,1,1.95,0.98,0,0,270.0*
21,1,0.98,1.95,0,0,270.0*
1,1,0.98,-0.49,-0.49*
1,1,0.98,-0.49,0.49*
1,1,0.98,0.49,0.49*
1,1,0.98,0.49,-0.49*
%
%ADD42ROUNDEDRECTD42*%
%ADD43C,1.50*%
%ADD44C,0.50*%
G36*
X6625Y3100D02*
X500D01*
Y4169D01*
X514D01*
X540Y4176D01*
X564Y4190D01*
X583Y4209D01*
X597Y4233D01*
X604Y4259D01*
Y4260D01*
X500D01*
Y4286D01*
X604D01*
Y4287D01*
X597Y4313D01*
X583Y4337D01*
X564Y4356D01*
X540Y4370D01*
X514Y4377D01*
X500D01*
Y4423D01*
X603D01*
Y4491D01*
X672D01*
X688Y4475D01*
X700Y4467D01*
X714Y4464D01*
X798D01*
Y4430D01*
X1003D01*
Y4519D01*
X1086Y4602D01*
X1098Y4598D01*
Y4597D01*
X1238D01*
Y4802D01*
X1098D01*
Y4715D01*
X952Y4570D01*
X798D01*
Y4536D01*
X728D01*
X712Y4552D01*
X700Y4560D01*
X686Y4563D01*
X603D01*
Y4630D01*
X500D01*
Y5600D01*
X6625D01*
Y3100D01*
D02*
G37*
G36*
Y100D02*
X500D01*
Y1169D01*
X514D01*
X540Y1176D01*
X564Y1190D01*
X583Y1209D01*
X597Y1233D01*
X604Y1259D01*
Y1260D01*
X500D01*
Y1286D01*
X604D01*
Y1287D01*
X597Y1313D01*
X583Y1337D01*
X564Y1356D01*
X540Y1370D01*
X514Y1377D01*
X500D01*
Y1423D01*
X603D01*
Y1491D01*
X672D01*
X688Y1475D01*
X700Y1467D01*
X714Y1464D01*
X798D01*
Y1430D01*
X1003D01*
Y1519D01*
X1086Y1602D01*
X1098Y1598D01*
Y1598D01*
X1238D01*
Y1802D01*
X1098D01*
Y1715D01*
X952Y1570D01*
X798D01*
Y1536D01*
X728D01*
X712Y1552D01*
X700Y1560D01*
X686Y1563D01*
X603D01*
Y1631D01*
X500D01*
Y2600D01*
X6625D01*
Y100D01*
D02*
G37*
%LPC*%
G36*
X6419Y5373D02*
X6321D01*
X6302Y5371D01*
X6284Y5363D01*
X6269Y5351D01*
X6257Y5336D01*
X6249Y5318D01*
X6247Y5299D01*
Y5286D01*
X5693D01*
X5679Y5283D01*
X5667Y5275D01*
X5660Y5268D01*
X5102D01*
Y5303D01*
X4897D01*
Y5268D01*
X4799D01*
X4799Y5268D01*
X4703D01*
Y5302D01*
X4497D01*
Y5268D01*
X4272D01*
X4265Y5275D01*
X4254Y5283D01*
X4240Y5286D01*
X3983D01*
X3972Y5305D01*
X3955Y5322D01*
X3935Y5334D01*
X3912Y5340D01*
X3888D01*
X3865Y5334D01*
X3845Y5322D01*
X3828Y5305D01*
X3817Y5286D01*
X3229D01*
X3215Y5283D01*
X3204Y5275D01*
X3075Y5146D01*
X3067Y5135D01*
X3064Y5121D01*
Y4872D01*
X3022D01*
Y4833D01*
X2799Y4823D01*
X2641Y4817D01*
X2570D01*
X2570Y4818D01*
X2557Y4839D01*
X2539Y4857D01*
X2518Y4870D01*
X2494Y4876D01*
X2468D01*
X2444Y4870D01*
X2423Y4857D01*
X2405Y4839D01*
X2392Y4818D01*
X2386Y4794D01*
Y4768D01*
X2392Y4744D01*
X2405Y4723D01*
X2423Y4705D01*
X2444Y4692D01*
X2468Y4686D01*
X2494D01*
X2518Y4692D01*
X2539Y4705D01*
X2557Y4723D01*
X2570Y4744D01*
X2570Y4745D01*
X2642D01*
X2643Y4745D01*
X2643Y4745D01*
X2755Y4750D01*
X2764Y4741D01*
Y4545D01*
X2723D01*
Y4413D01*
X2723Y4400D01*
X2723Y4387D01*
Y4255D01*
X2764D01*
Y4145D01*
X2674Y4055D01*
X2570D01*
X2570Y4056D01*
X2557Y4077D01*
X2539Y4095D01*
X2518Y4108D01*
X2494Y4114D01*
X2468D01*
X2444Y4108D01*
X2423Y4095D01*
X2405Y4077D01*
X2392Y4056D01*
X2386Y4032D01*
Y4006D01*
X2392Y3982D01*
X2405Y3961D01*
X2423Y3943D01*
X2444Y3930D01*
X2468Y3924D01*
X2494D01*
X2518Y3930D01*
X2539Y3943D01*
X2557Y3961D01*
X2570Y3982D01*
X2570Y3983D01*
X2689D01*
X2703Y3986D01*
X2714Y3994D01*
X2825Y4105D01*
X2833Y4116D01*
X2836Y4130D01*
Y4137D01*
X2847Y4142D01*
X2879Y4111D01*
X2890Y4103D01*
X2904Y4100D01*
X3013D01*
X3022Y4091D01*
X3022Y4064D01*
X3022Y4051D01*
Y3919D01*
X3177D01*
Y3955D01*
X3444D01*
X3816Y3584D01*
X3810Y3562D01*
Y3538D01*
X3816Y3515D01*
X3828Y3495D01*
X3845Y3478D01*
X3865Y3466D01*
X3888Y3460D01*
X3912D01*
X3934Y3466D01*
X4125Y3275D01*
X4136Y3267D01*
X4150Y3264D01*
X4514D01*
Y3230D01*
X4686D01*
Y3264D01*
X4897D01*
Y3230D01*
X4964D01*
X4966Y3220D01*
X4974Y3208D01*
X5033Y3150D01*
X5044Y3142D01*
X5058Y3139D01*
X5705D01*
X5718Y3142D01*
X5730Y3150D01*
X5804Y3223D01*
X5814Y3230D01*
Y3230D01*
X5814Y3230D01*
X5986D01*
Y3264D01*
X6227D01*
X6241Y3267D01*
X6252Y3275D01*
X6356Y3379D01*
X6360Y3377D01*
X6386Y3370D01*
X6414D01*
X6440Y3377D01*
X6464Y3390D01*
X6483Y3409D01*
X6496Y3433D01*
X6504Y3459D01*
Y3487D01*
X6496Y3513D01*
X6494Y3517D01*
X6541Y3564D01*
X6549Y3575D01*
X6551Y3589D01*
Y4754D01*
X6549Y4768D01*
X6541Y4779D01*
X6478Y4842D01*
X6484Y4853D01*
X6493Y4884D01*
Y4916D01*
X6484Y4947D01*
X6468Y4975D01*
X6445Y4998D01*
X6417Y5014D01*
X6386Y5022D01*
X6354D01*
X6323Y5014D01*
X6295Y4998D01*
X6272Y4975D01*
X6256Y4947D01*
X6248Y4916D01*
Y4884D01*
X6256Y4853D01*
X6272Y4825D01*
X6295Y4802D01*
X6323Y4786D01*
X6354Y4777D01*
X6386D01*
X6417Y4786D01*
X6428Y4792D01*
X6480Y4739D01*
Y4628D01*
X6471Y4626D01*
X6467Y4626D01*
X6445Y4648D01*
X6417Y4664D01*
X6386Y4672D01*
X6354D01*
X6323Y4664D01*
X6295Y4648D01*
X6272Y4625D01*
X6256Y4597D01*
X6248Y4566D01*
Y4534D01*
X6256Y4503D01*
X6272Y4475D01*
X6295Y4452D01*
X6323Y4436D01*
X6354Y4427D01*
X6386D01*
X6417Y4436D01*
X6445Y4452D01*
X6467Y4474D01*
X6471Y4474D01*
X6480Y4472D01*
Y3831D01*
X6297D01*
Y3763D01*
X5752D01*
X5739Y3760D01*
X5727Y3752D01*
X5637Y3663D01*
X5603D01*
X5598Y3674D01*
X5768Y3844D01*
X5775Y3856D01*
X5778Y3869D01*
Y4192D01*
X5822D01*
Y4407D01*
X5778D01*
Y4527D01*
X5787Y4535D01*
X5794Y4547D01*
X5797Y4560D01*
Y4709D01*
X5831D01*
Y4899D01*
X5691D01*
Y4709D01*
X5726D01*
Y4575D01*
X5717Y4567D01*
X5710Y4555D01*
X5707Y4541D01*
Y4407D01*
X5662D01*
Y4192D01*
X5707D01*
Y3884D01*
X5520Y3698D01*
X5414D01*
Y3698D01*
X5407Y3694D01*
X5378Y3723D01*
Y4192D01*
X5537D01*
Y4407D01*
X5493D01*
Y4511D01*
X5532Y4550D01*
X5539Y4561D01*
X5542Y4575D01*
Y4709D01*
X5641D01*
Y4899D01*
X5502D01*
X5500Y4911D01*
X5492Y4922D01*
X5425Y4989D01*
Y4998D01*
X5418Y5017D01*
X5404Y5031D01*
X5385Y5038D01*
X5365D01*
X5347Y5031D01*
X5333Y5017D01*
X5325Y4998D01*
Y4978D01*
X5333Y4960D01*
X5347Y4946D01*
X5365Y4938D01*
X5375D01*
X5403Y4911D01*
X5398Y4899D01*
X5371D01*
Y4709D01*
X5471D01*
Y4590D01*
X5432Y4551D01*
X5425Y4540D01*
X5422Y4526D01*
Y4407D01*
X5377D01*
Y4297D01*
X5376Y4296D01*
X5365Y4292D01*
X5205Y4452D01*
X5193Y4460D01*
X5180Y4463D01*
X5065D01*
X5063Y4475D01*
X5080Y4493D01*
X5093Y4515D01*
X5100Y4541D01*
Y4567D01*
X5093Y4593D01*
X5080Y4615D01*
X5061Y4634D01*
X5039Y4647D01*
X5036Y4648D01*
Y4898D01*
X5102D01*
Y5038D01*
X4897D01*
Y4898D01*
X4964D01*
Y4648D01*
X4961Y4647D01*
X4939Y4634D01*
X4920Y4615D01*
X4907Y4593D01*
X4900Y4567D01*
Y4541D01*
X4907Y4515D01*
X4920Y4493D01*
X4937Y4475D01*
X4937Y4469D01*
X4934Y4462D01*
X4922Y4460D01*
X4911Y4452D01*
X4862Y4404D01*
X4855Y4392D01*
X4852Y4379D01*
Y4077D01*
X4855Y4063D01*
X4862Y4051D01*
X4918Y3996D01*
Y3635D01*
X4897D01*
Y3495D01*
X5078D01*
Y3429D01*
X5020Y3370D01*
X4897D01*
Y3336D01*
X4686D01*
Y3371D01*
X4514D01*
Y3336D01*
X4165D01*
X3984Y3516D01*
X3990Y3538D01*
Y3562D01*
X3984Y3585D01*
X3972Y3605D01*
X3955Y3622D01*
X3935Y3634D01*
X3912Y3640D01*
X3888D01*
X3866Y3634D01*
X3484Y4016D01*
X3473Y4024D01*
X3459Y4027D01*
X3186D01*
X3177Y4036D01*
X3177Y4064D01*
X3177Y4076D01*
Y4100D01*
X3799D01*
X3810Y4090D01*
Y3960D01*
X3940D01*
X4298Y3602D01*
X4309Y3594D01*
X4323Y3591D01*
X4514D01*
Y3557D01*
X4686D01*
Y3698D01*
X4514D01*
Y3663D01*
X4338D01*
X3990Y4010D01*
Y4140D01*
X3860D01*
X3839Y4161D01*
X3828Y4169D01*
X3814Y4172D01*
X3177D01*
Y4209D01*
X3022D01*
Y4172D01*
X2919D01*
X2848Y4242D01*
X2853Y4255D01*
X2878D01*
Y4387D01*
X2878Y4400D01*
X2878Y4413D01*
Y4545D01*
X2836D01*
Y4753D01*
X3013Y4761D01*
X3022Y4752D01*
Y4583D01*
X3177D01*
Y4619D01*
X3805D01*
X3819Y4622D01*
X3830Y4630D01*
X3860Y4660D01*
X3990D01*
Y4790D01*
X4132Y4932D01*
X4497D01*
Y4897D01*
X4703D01*
Y5037D01*
X4497D01*
Y5003D01*
X4118D01*
X4104Y5000D01*
X4092Y4993D01*
X3940Y4840D01*
X3810D01*
Y4710D01*
X3790Y4691D01*
X3177D01*
Y4727D01*
Y4872D01*
X3136D01*
Y5106D01*
X3244Y5214D01*
X3817D01*
X3828Y5195D01*
X3845Y5178D01*
X3865Y5166D01*
X3888Y5160D01*
X3912D01*
X3935Y5166D01*
X3955Y5178D01*
X3972Y5195D01*
X3983Y5214D01*
X4225D01*
X4232Y5207D01*
X4244Y5200D01*
X4257Y5197D01*
X4497D01*
Y5162D01*
X4703D01*
Y5197D01*
X4799D01*
X4799Y5197D01*
X4897D01*
Y5163D01*
X5102D01*
Y5197D01*
X5675D01*
X5689Y5200D01*
X5700Y5207D01*
X5707Y5214D01*
X6247D01*
Y5201D01*
X6249Y5182D01*
X6257Y5164D01*
X6269Y5149D01*
X6284Y5137D01*
X6302Y5129D01*
X6321Y5127D01*
X6419D01*
X6438Y5129D01*
X6456Y5137D01*
X6471Y5149D01*
X6483Y5164D01*
X6491Y5182D01*
X6493Y5201D01*
Y5299D01*
X6491Y5318D01*
X6483Y5336D01*
X6471Y5351D01*
X6456Y5363D01*
X6438Y5371D01*
X6419Y5373D01*
D02*
G37*
G36*
X1814Y4876D02*
X1732D01*
Y4794D01*
X1814D01*
Y4876D01*
D02*
G37*
G36*
X1706D02*
X1624D01*
Y4794D01*
X1706D01*
Y4876D01*
D02*
G37*
G36*
Y4768D02*
X1624D01*
Y4686D01*
X1706D01*
Y4768D01*
D02*
G37*
G36*
X1503Y4802D02*
X1363D01*
Y4597D01*
X1485D01*
X1580Y4502D01*
X1592Y4494D01*
X1606Y4491D01*
X1630D01*
X1630Y4490D01*
X1643Y4469D01*
X1661Y4451D01*
X1682Y4438D01*
X1706Y4432D01*
X1732D01*
X1756Y4438D01*
X1776Y4450D01*
X1786Y4447D01*
X1789Y4446D01*
Y4393D01*
X1757Y4361D01*
X1756Y4362D01*
X1732Y4368D01*
Y4286D01*
X1814D01*
X1808Y4310D01*
X1807Y4311D01*
X1850Y4353D01*
X1857Y4365D01*
X1860Y4378D01*
Y4676D01*
X1857Y4689D01*
X1850Y4701D01*
X1814Y4736D01*
Y4768D01*
X1732D01*
Y4686D01*
X1764D01*
X1789Y4661D01*
Y4608D01*
X1786Y4607D01*
X1776Y4604D01*
X1756Y4616D01*
X1732Y4622D01*
X1706D01*
X1682Y4616D01*
X1661Y4603D01*
X1643Y4585D01*
X1632Y4566D01*
X1621Y4565D01*
X1618Y4565D01*
X1503Y4680D01*
Y4802D01*
D02*
G37*
G36*
X1706Y4368D02*
X1682Y4362D01*
X1660Y4349D01*
X1643Y4332D01*
X1630Y4310D01*
X1624Y4286D01*
X1706D01*
Y4368D01*
D02*
G37*
G36*
X1313Y4400D02*
X1287D01*
X1261Y4393D01*
X1239Y4380D01*
X1220Y4361D01*
X1207Y4339D01*
X1200Y4313D01*
Y4287D01*
X1202Y4281D01*
X1194Y4271D01*
X1003D01*
Y4305D01*
X798D01*
Y4165D01*
X1003D01*
Y4199D01*
X1235D01*
X1249Y4202D01*
X1258Y4209D01*
X1261Y4207D01*
X1287Y4200D01*
X1313D01*
X1339Y4207D01*
X1361Y4220D01*
X1380Y4239D01*
X1393Y4261D01*
X1400Y4287D01*
Y4313D01*
X1393Y4339D01*
X1380Y4361D01*
X1361Y4380D01*
X1339Y4393D01*
X1313Y4400D01*
D02*
G37*
G36*
X2494Y4622D02*
X2468D01*
X2444Y4616D01*
X2423Y4603D01*
X2405Y4585D01*
X2392Y4564D01*
X2386Y4540D01*
Y4514D01*
X2392Y4490D01*
X2405Y4469D01*
X2423Y4451D01*
X2444Y4438D01*
X2445Y4438D01*
Y4362D01*
X2444Y4362D01*
X2423Y4349D01*
X2405Y4331D01*
X2392Y4310D01*
X2386Y4286D01*
Y4260D01*
X2392Y4236D01*
X2405Y4215D01*
X2423Y4197D01*
X2444Y4184D01*
X2468Y4178D01*
X2494D01*
X2518Y4184D01*
X2539Y4197D01*
X2557Y4215D01*
X2570Y4236D01*
X2576Y4260D01*
Y4286D01*
X2570Y4310D01*
X2557Y4331D01*
X2539Y4349D01*
X2518Y4362D01*
X2517Y4362D01*
Y4438D01*
X2518Y4438D01*
X2539Y4451D01*
X2557Y4469D01*
X2570Y4490D01*
X2576Y4514D01*
Y4540D01*
X2570Y4564D01*
X2557Y4585D01*
X2539Y4603D01*
X2518Y4616D01*
X2494Y4622D01*
D02*
G37*
G36*
X1313Y4146D02*
X1313D01*
Y4059D01*
X1400D01*
Y4059D01*
X1394Y4085D01*
X1380Y4108D01*
X1362Y4126D01*
X1339Y4140D01*
X1313Y4146D01*
D02*
G37*
G36*
X1287D02*
X1287D01*
X1261Y4140D01*
X1238Y4126D01*
X1220Y4108D01*
X1206Y4085D01*
X1200Y4059D01*
Y4059D01*
X1287D01*
Y4146D01*
D02*
G37*
G36*
X1814Y4260D02*
X1624D01*
X1630Y4236D01*
X1643Y4214D01*
X1660Y4197D01*
X1682Y4184D01*
X1683Y4184D01*
Y4108D01*
X1682Y4108D01*
X1660Y4095D01*
X1643Y4078D01*
X1630Y4056D01*
X1624Y4032D01*
X1814D01*
X1808Y4056D01*
X1795Y4078D01*
X1778Y4095D01*
X1756Y4108D01*
X1755Y4108D01*
Y4184D01*
X1756Y4184D01*
X1778Y4197D01*
X1795Y4214D01*
X1808Y4236D01*
X1814Y4260D01*
D02*
G37*
G36*
X1400Y4033D02*
X1313D01*
Y3946D01*
X1313D01*
X1339Y3952D01*
X1362Y3966D01*
X1380Y3984D01*
X1394Y4007D01*
X1400Y4033D01*
Y4033D01*
D02*
G37*
G36*
X1287D02*
X1200D01*
Y4033D01*
X1206Y4007D01*
X1220Y3984D01*
X1238Y3966D01*
X1261Y3952D01*
X1287Y3946D01*
X1287D01*
Y4033D01*
D02*
G37*
G36*
X1814Y4006D02*
X1732D01*
Y3924D01*
X1756Y3930D01*
X1778Y3943D01*
X1795Y3960D01*
X1808Y3982D01*
X1814Y4006D01*
D02*
G37*
G36*
X1706D02*
X1624D01*
X1630Y3982D01*
X1643Y3960D01*
X1660Y3943D01*
X1682Y3930D01*
X1706Y3924D01*
Y4006D01*
D02*
G37*
%LPD*%
G36*
X5078Y3861D02*
Y3635D01*
X4989D01*
Y3933D01*
X5001Y3938D01*
X5078Y3861D01*
D02*
G37*
G36*
X5307Y4250D02*
Y3708D01*
X5309Y3695D01*
X5317Y3683D01*
X5398Y3602D01*
X5410Y3594D01*
X5414Y3593D01*
Y3557D01*
X5586D01*
Y3591D01*
X5652D01*
X5666Y3594D01*
X5677Y3602D01*
X5767Y3691D01*
X5814D01*
Y3661D01*
X5809Y3660D01*
X5797Y3652D01*
X5622Y3477D01*
X5614Y3465D01*
X5611Y3452D01*
Y3372D01*
X5598Y3359D01*
X5586Y3364D01*
Y3371D01*
X5414D01*
Y3230D01*
X5586D01*
Y3264D01*
X5589D01*
X5603Y3267D01*
X5615Y3275D01*
X5672Y3332D01*
X5680Y3344D01*
X5683Y3358D01*
Y3437D01*
X5806Y3560D01*
X5814Y3557D01*
Y3557D01*
X5986D01*
Y3691D01*
X6297D01*
Y3624D01*
X6480D01*
Y3604D01*
X6444Y3567D01*
X6440Y3569D01*
X6414Y3577D01*
X6386D01*
X6360Y3569D01*
X6336Y3556D01*
X6317Y3537D01*
X6304Y3513D01*
X6297Y3487D01*
Y3459D01*
X6304Y3433D01*
X6306Y3429D01*
X6212Y3336D01*
X5986D01*
Y3371D01*
X5814D01*
Y3331D01*
X5805Y3325D01*
X5690Y3211D01*
X5074D01*
X5067Y3218D01*
X5073Y3230D01*
X5102D01*
Y3352D01*
X5139Y3388D01*
X5147Y3400D01*
X5149Y3414D01*
Y3876D01*
X5147Y3890D01*
X5139Y3901D01*
X5036Y4004D01*
Y4206D01*
X5039Y4207D01*
X5061Y4220D01*
X5080Y4239D01*
X5093Y4261D01*
X5100Y4287D01*
Y4313D01*
X5093Y4339D01*
X5080Y4361D01*
X5063Y4379D01*
X5065Y4391D01*
X5165D01*
X5307Y4250D01*
D02*
G37*
%LPC*%
G36*
X6419Y2373D02*
X6321D01*
X6302Y2371D01*
X6284Y2363D01*
X6269Y2351D01*
X6257Y2336D01*
X6249Y2318D01*
X6247Y2299D01*
Y2286D01*
X5693D01*
X5679Y2283D01*
X5667Y2275D01*
X5660Y2268D01*
X5102D01*
Y2302D01*
X4897D01*
Y2268D01*
X4703D01*
Y2302D01*
X4497D01*
Y2268D01*
X4272D01*
X4265Y2275D01*
X4254Y2283D01*
X4240Y2286D01*
X3983D01*
X3972Y2305D01*
X3955Y2322D01*
X3935Y2334D01*
X3912Y2340D01*
X3888D01*
X3865Y2334D01*
X3845Y2322D01*
X3828Y2305D01*
X3817Y2286D01*
X3229D01*
X3215Y2283D01*
X3204Y2275D01*
X3075Y2146D01*
X3067Y2135D01*
X3064Y2121D01*
Y1872D01*
X3022D01*
Y1836D01*
X2910D01*
X2896Y1833D01*
X2884Y1825D01*
X2859Y1800D01*
X2566D01*
X2566Y1801D01*
X2553Y1822D01*
X2536Y1840D01*
X2514Y1852D01*
X2490Y1859D01*
X2465D01*
X2441Y1852D01*
X2419Y1840D01*
X2401Y1822D01*
X2389Y1801D01*
X2382Y1776D01*
Y1751D01*
X2389Y1727D01*
X2401Y1706D01*
X2419Y1688D01*
X2441Y1675D01*
X2465Y1669D01*
X2490D01*
X2514Y1675D01*
X2515Y1676D01*
X2716Y1475D01*
X2721Y1471D01*
X2722Y1470D01*
X2722Y1400D01*
X2722Y1387D01*
Y1357D01*
X2716Y1353D01*
X2615Y1251D01*
X2607Y1240D01*
X2604Y1226D01*
Y1179D01*
X2515Y1090D01*
X2514Y1090D01*
X2490Y1097D01*
X2465D01*
X2441Y1090D01*
X2419Y1078D01*
X2401Y1060D01*
X2389Y1039D01*
X2382Y1014D01*
Y989D01*
X2389Y965D01*
X2401Y944D01*
X2419Y926D01*
X2441Y913D01*
X2465Y907D01*
X2490D01*
X2514Y913D01*
X2536Y926D01*
X2553Y944D01*
X2566Y965D01*
X2572Y989D01*
Y1014D01*
X2566Y1039D01*
X2565Y1039D01*
X2665Y1139D01*
X2673Y1151D01*
X2675Y1164D01*
Y1211D01*
X2713Y1248D01*
X2722Y1255D01*
Y1255D01*
X2722Y1255D01*
X2764D01*
Y1249D01*
X2767Y1235D01*
X2775Y1224D01*
X2879Y1120D01*
X2890Y1112D01*
X2904Y1109D01*
X3022D01*
Y1073D01*
Y928D01*
X3177D01*
Y964D01*
X3435D01*
X3816Y584D01*
X3810Y562D01*
Y538D01*
X3816Y515D01*
X3828Y495D01*
X3845Y478D01*
X3865Y466D01*
X3888Y460D01*
X3912D01*
X3934Y466D01*
X4088Y311D01*
X4100Y304D01*
X4113Y301D01*
X4514D01*
Y266D01*
X4686D01*
Y301D01*
X4793D01*
X4800Y299D01*
X4897D01*
Y265D01*
X5102D01*
Y299D01*
X5170D01*
X5287Y183D01*
X5298Y175D01*
X5312Y172D01*
X5652D01*
X5666Y175D01*
X5677Y183D01*
X5759Y264D01*
X5814D01*
Y230D01*
X5986D01*
Y264D01*
X6227D01*
X6241Y267D01*
X6252Y275D01*
X6356Y379D01*
X6360Y377D01*
X6386Y370D01*
X6414D01*
X6440Y377D01*
X6464Y390D01*
X6483Y409D01*
X6496Y433D01*
X6504Y459D01*
Y487D01*
X6496Y513D01*
X6494Y517D01*
X6541Y564D01*
X6549Y575D01*
X6551Y589D01*
Y1754D01*
X6549Y1768D01*
X6541Y1779D01*
X6478Y1842D01*
X6484Y1853D01*
X6493Y1884D01*
Y1916D01*
X6484Y1947D01*
X6468Y1975D01*
X6445Y1998D01*
X6417Y2014D01*
X6386Y2022D01*
X6354D01*
X6323Y2014D01*
X6295Y1998D01*
X6272Y1975D01*
X6256Y1947D01*
X6248Y1916D01*
Y1884D01*
X6256Y1853D01*
X6272Y1825D01*
X6295Y1802D01*
X6323Y1786D01*
X6354Y1777D01*
X6386D01*
X6417Y1786D01*
X6428Y1792D01*
X6480Y1739D01*
Y1628D01*
X6471Y1626D01*
X6467Y1626D01*
X6445Y1648D01*
X6417Y1664D01*
X6386Y1672D01*
X6354D01*
X6323Y1664D01*
X6295Y1648D01*
X6272Y1625D01*
X6256Y1597D01*
X6248Y1566D01*
Y1534D01*
X6256Y1503D01*
X6272Y1475D01*
X6295Y1452D01*
X6323Y1436D01*
X6354Y1427D01*
X6386D01*
X6417Y1436D01*
X6445Y1452D01*
X6467Y1474D01*
X6471Y1474D01*
X6480Y1472D01*
Y831D01*
X6297D01*
Y763D01*
X5752D01*
X5739Y760D01*
X5727Y752D01*
X5637Y663D01*
X5603D01*
X5598Y674D01*
X5768Y844D01*
X5775Y856D01*
X5778Y870D01*
Y1193D01*
X5822D01*
Y1407D01*
X5778D01*
Y1524D01*
X5785Y1531D01*
X5793Y1543D01*
X5796Y1557D01*
Y1705D01*
X5830D01*
Y1895D01*
X5690D01*
Y1705D01*
X5724D01*
Y1571D01*
X5717Y1564D01*
X5710Y1553D01*
X5707Y1539D01*
Y1407D01*
X5662D01*
Y1193D01*
X5707D01*
Y884D01*
X5520Y698D01*
X5414D01*
Y663D01*
X5357D01*
X5294Y726D01*
Y1204D01*
X5291Y1217D01*
X5284Y1229D01*
X5131Y1381D01*
X5120Y1389D01*
X5106Y1392D01*
X5032D01*
X5030Y1405D01*
X5039Y1407D01*
X5061Y1420D01*
X5080Y1439D01*
X5093Y1461D01*
X5100Y1487D01*
Y1513D01*
X5093Y1539D01*
X5080Y1561D01*
X5061Y1580D01*
X5039Y1593D01*
X5036Y1594D01*
Y1898D01*
X5102D01*
Y2038D01*
X4897D01*
Y1898D01*
X4964D01*
Y1594D01*
X4961Y1593D01*
X4939Y1580D01*
X4920Y1561D01*
X4907Y1539D01*
X4900Y1513D01*
Y1487D01*
X4907Y1461D01*
X4920Y1439D01*
X4939Y1420D01*
X4961Y1407D01*
X4970Y1405D01*
X4968Y1392D01*
X4936D01*
X4922Y1389D01*
X4911Y1381D01*
X4862Y1333D01*
X4855Y1322D01*
X4852Y1308D01*
Y843D01*
X4855Y829D01*
X4862Y818D01*
X4946Y734D01*
Y670D01*
X4897D01*
Y530D01*
X5078D01*
Y464D01*
X5020Y405D01*
X4897D01*
Y371D01*
X4806D01*
X4799Y372D01*
X4686D01*
Y407D01*
X4514D01*
Y372D01*
X4128D01*
X3984Y516D01*
X3990Y538D01*
Y562D01*
X3984Y585D01*
X3972Y605D01*
X3955Y622D01*
X3935Y634D01*
X3912Y640D01*
X3888D01*
X3866Y634D01*
X3475Y1025D01*
X3464Y1033D01*
X3450Y1036D01*
X3177D01*
Y1109D01*
X3790D01*
X3810Y1090D01*
Y960D01*
X3940D01*
X4261Y638D01*
X4273Y631D01*
X4286Y628D01*
X4514D01*
Y593D01*
X4686D01*
Y734D01*
X4514D01*
Y699D01*
X4301D01*
X3990Y1010D01*
Y1140D01*
X3860D01*
X3830Y1170D01*
X3819Y1178D01*
X3805Y1181D01*
X3177D01*
Y1217D01*
X3022D01*
Y1181D01*
X2919D01*
X2856Y1243D01*
X2861Y1255D01*
X2877D01*
Y1387D01*
X2877Y1400D01*
X2877Y1413D01*
Y1545D01*
X2747D01*
X2576Y1716D01*
X2581Y1728D01*
X2873D01*
X2887Y1731D01*
X2899Y1739D01*
X2924Y1764D01*
X3014D01*
X3022Y1755D01*
X3022Y1727D01*
X3022Y1715D01*
Y1582D01*
X3177D01*
Y1619D01*
X3805D01*
X3819Y1622D01*
X3830Y1630D01*
X3860Y1660D01*
X3990D01*
Y1790D01*
X4132Y1932D01*
X4497D01*
Y1897D01*
X4703D01*
Y2037D01*
X4497D01*
Y2003D01*
X4117D01*
X4104Y2000D01*
X4092Y1993D01*
X3940Y1840D01*
X3810D01*
Y1710D01*
X3790Y1691D01*
X3186D01*
X3177Y1700D01*
X3177Y1727D01*
X3177Y1740D01*
Y1872D01*
X3136D01*
Y2106D01*
X3244Y2214D01*
X3817D01*
X3828Y2195D01*
X3845Y2178D01*
X3865Y2166D01*
X3888Y2160D01*
X3912D01*
X3935Y2166D01*
X3955Y2178D01*
X3972Y2195D01*
X3983Y2214D01*
X4225D01*
X4232Y2207D01*
X4244Y2200D01*
X4257Y2197D01*
X4497D01*
Y2163D01*
X4703D01*
Y2197D01*
X4897D01*
Y2163D01*
X5102D01*
Y2197D01*
X5675D01*
X5689Y2200D01*
X5700Y2207D01*
X5707Y2214D01*
X6247D01*
Y2201D01*
X6249Y2182D01*
X6257Y2164D01*
X6269Y2149D01*
X6284Y2137D01*
X6302Y2129D01*
X6321Y2127D01*
X6419D01*
X6438Y2129D01*
X6456Y2137D01*
X6471Y2149D01*
X6483Y2164D01*
X6491Y2182D01*
X6493Y2201D01*
Y2299D01*
X6491Y2318D01*
X6483Y2336D01*
X6471Y2351D01*
X6456Y2363D01*
X6438Y2371D01*
X6419Y2373D01*
D02*
G37*
G36*
X1811Y1859D02*
X1728D01*
Y1777D01*
X1811D01*
Y1859D01*
D02*
G37*
G36*
X1702D02*
X1620D01*
Y1777D01*
X1702D01*
Y1859D01*
D02*
G37*
G36*
Y1751D02*
X1620D01*
Y1669D01*
X1702D01*
Y1751D01*
D02*
G37*
G36*
X1503Y1802D02*
X1363D01*
Y1598D01*
X1485D01*
X1597Y1485D01*
X1609Y1477D01*
X1623Y1474D01*
X1626D01*
X1627Y1473D01*
X1639Y1452D01*
X1657Y1434D01*
X1679Y1421D01*
X1703Y1415D01*
X1728D01*
X1752Y1421D01*
X1774Y1434D01*
X1774Y1435D01*
X1786Y1430D01*
Y1377D01*
X1753Y1344D01*
X1752Y1345D01*
X1728Y1351D01*
Y1269D01*
X1811D01*
X1804Y1293D01*
X1804Y1294D01*
X1847Y1337D01*
X1855Y1349D01*
X1858Y1363D01*
Y1657D01*
X1855Y1671D01*
X1847Y1682D01*
X1811Y1719D01*
Y1751D01*
X1728D01*
Y1669D01*
X1760D01*
X1786Y1642D01*
Y1590D01*
X1774Y1585D01*
X1774Y1586D01*
X1752Y1598D01*
X1728Y1605D01*
X1703D01*
X1679Y1598D01*
X1657Y1586D01*
X1639Y1568D01*
X1635Y1562D01*
X1623Y1560D01*
X1503Y1680D01*
Y1802D01*
D02*
G37*
G36*
X1313Y1400D02*
X1287D01*
X1261Y1393D01*
X1239Y1380D01*
X1220Y1361D01*
X1207Y1339D01*
X1200Y1313D01*
Y1287D01*
X1202Y1281D01*
X1194Y1271D01*
X1003D01*
Y1305D01*
X798D01*
Y1165D01*
X1003D01*
Y1199D01*
X1235D01*
X1249Y1202D01*
X1258Y1209D01*
X1261Y1207D01*
X1287Y1200D01*
X1313D01*
X1339Y1207D01*
X1361Y1220D01*
X1380Y1239D01*
X1393Y1261D01*
X1400Y1287D01*
Y1313D01*
X1393Y1339D01*
X1380Y1361D01*
X1361Y1380D01*
X1339Y1393D01*
X1313Y1400D01*
D02*
G37*
G36*
X1702Y1351D02*
X1678Y1345D01*
X1657Y1332D01*
X1639Y1314D01*
X1626Y1293D01*
X1620Y1269D01*
X1702D01*
Y1351D01*
D02*
G37*
G36*
X5467Y2097D02*
X5448D01*
X5429Y2089D01*
X5415Y2075D01*
X5407Y2057D01*
Y2037D01*
X5415Y2019D01*
X5422Y2012D01*
Y1895D01*
X5370D01*
Y1705D01*
X5422D01*
Y1524D01*
Y1407D01*
X5377D01*
Y1193D01*
X5537D01*
Y1407D01*
X5493D01*
Y1509D01*
X5530Y1546D01*
X5538Y1558D01*
X5541Y1571D01*
Y1705D01*
X5640D01*
Y1895D01*
X5493D01*
Y2012D01*
X5500Y2019D01*
X5507Y2037D01*
Y2057D01*
X5500Y2075D01*
X5486Y2089D01*
X5467Y2097D01*
D02*
G37*
G36*
X2490Y1605D02*
X2465D01*
X2441Y1598D01*
X2419Y1586D01*
X2401Y1568D01*
X2389Y1547D01*
X2382Y1522D01*
Y1497D01*
X2389Y1473D01*
X2401Y1452D01*
X2419Y1434D01*
X2441Y1421D01*
X2442Y1421D01*
Y1345D01*
X2441Y1344D01*
X2419Y1332D01*
X2401Y1314D01*
X2389Y1293D01*
X2382Y1268D01*
Y1243D01*
X2389Y1219D01*
X2401Y1198D01*
X2419Y1180D01*
X2441Y1167D01*
X2465Y1161D01*
X2490D01*
X2514Y1167D01*
X2536Y1180D01*
X2553Y1198D01*
X2566Y1219D01*
X2572Y1243D01*
Y1268D01*
X2566Y1293D01*
X2553Y1314D01*
X2536Y1332D01*
X2514Y1344D01*
X2513Y1345D01*
Y1421D01*
X2514Y1421D01*
X2536Y1434D01*
X2553Y1452D01*
X2566Y1473D01*
X2572Y1497D01*
Y1522D01*
X2566Y1547D01*
X2553Y1568D01*
X2536Y1586D01*
X2514Y1598D01*
X2490Y1605D01*
D02*
G37*
G36*
X1313Y1146D02*
X1313D01*
Y1059D01*
X1400D01*
Y1059D01*
X1394Y1085D01*
X1380Y1108D01*
X1362Y1126D01*
X1339Y1140D01*
X1313Y1146D01*
D02*
G37*
G36*
X1287D02*
X1287D01*
X1261Y1140D01*
X1238Y1126D01*
X1220Y1108D01*
X1206Y1085D01*
X1200Y1059D01*
Y1059D01*
X1287D01*
Y1146D01*
D02*
G37*
G36*
X1811Y1243D02*
X1620D01*
X1626Y1219D01*
X1639Y1197D01*
X1657Y1180D01*
X1678Y1167D01*
X1680Y1167D01*
Y1091D01*
X1678Y1091D01*
X1657Y1078D01*
X1639Y1060D01*
X1626Y1039D01*
X1620Y1015D01*
X1811D01*
X1804Y1039D01*
X1792Y1060D01*
X1774Y1078D01*
X1752Y1091D01*
X1751Y1091D01*
Y1167D01*
X1752Y1167D01*
X1774Y1180D01*
X1792Y1197D01*
X1804Y1219D01*
X1811Y1243D01*
D02*
G37*
G36*
X1400Y1033D02*
X1313D01*
Y946D01*
X1313D01*
X1339Y952D01*
X1362Y966D01*
X1380Y984D01*
X1394Y1007D01*
X1400Y1033D01*
Y1033D01*
D02*
G37*
G36*
X1287D02*
X1200D01*
Y1033D01*
X1206Y1007D01*
X1220Y984D01*
X1238Y966D01*
X1261Y952D01*
X1287Y946D01*
X1287D01*
Y1033D01*
D02*
G37*
G36*
X1811Y989D02*
X1728D01*
Y907D01*
X1752Y913D01*
X1774Y926D01*
X1792Y943D01*
X1804Y965D01*
X1811Y989D01*
D02*
G37*
G36*
X1702D02*
X1620D01*
X1626Y965D01*
X1639Y943D01*
X1657Y926D01*
X1678Y913D01*
X1702Y907D01*
Y989D01*
D02*
G37*
%LPD*%
G36*
X4939Y1166D02*
X4961Y1153D01*
X4964Y1152D01*
Y982D01*
X4967Y969D01*
X4975Y957D01*
X5078Y854D01*
Y670D01*
X5017D01*
Y749D01*
X5015Y763D01*
X5007Y774D01*
X4923Y858D01*
Y1165D01*
X4935Y1169D01*
X4939Y1166D01*
D02*
G37*
G36*
X6297Y624D02*
X6480D01*
Y604D01*
X6444Y567D01*
X6440Y569D01*
X6414Y577D01*
X6386D01*
X6360Y569D01*
X6336Y556D01*
X6317Y537D01*
X6304Y513D01*
X6297Y487D01*
Y459D01*
X6304Y433D01*
X6306Y429D01*
X6212Y336D01*
X5986D01*
Y371D01*
X5814D01*
Y336D01*
X5744D01*
X5730Y333D01*
X5719Y325D01*
X5637Y244D01*
X5586D01*
Y300D01*
X5842Y557D01*
X5986D01*
Y691D01*
X6297D01*
Y624D01*
D02*
G37*
G36*
X5223Y1189D02*
Y711D01*
X5226Y697D01*
X5233Y686D01*
X5317Y602D01*
X5329Y594D01*
X5342Y591D01*
X5414D01*
Y557D01*
X5586D01*
Y591D01*
X5652D01*
X5666Y594D01*
X5677Y602D01*
X5767Y691D01*
X5814D01*
Y629D01*
X5555Y371D01*
X5414D01*
Y244D01*
X5327D01*
X5210Y360D01*
X5198Y368D01*
X5185Y371D01*
X5102D01*
Y387D01*
X5139Y423D01*
X5147Y435D01*
X5149Y449D01*
Y869D01*
X5147Y882D01*
X5139Y894D01*
X5036Y997D01*
Y1152D01*
X5039Y1153D01*
X5061Y1166D01*
X5080Y1185D01*
X5093Y1207D01*
X5100Y1233D01*
Y1259D01*
X5093Y1285D01*
X5083Y1302D01*
X5088Y1315D01*
X5089Y1316D01*
X5095Y1317D01*
X5223Y1189D01*
D02*
G37*
D12*
X4954Y3565D02*
Y4010D01*
X5467Y4804D02*
Y4897D01*
X4999Y3233D02*
Y3300D01*
X4600D02*
X4999D01*
X2800Y4788D02*
X3100Y4800D01*
X2800Y4130D02*
Y4240D01*
X5457Y1524D02*
Y2047D01*
Y1300D02*
Y1524D01*
X4982Y600D02*
Y749D01*
X1719Y4273D02*
X1824Y4378D01*
Y4676D01*
X1719Y4781D02*
X1824Y4676D01*
X1606Y4527D02*
X1719D01*
X1433Y4700D02*
X1606Y4527D01*
X5742Y3869D02*
Y4300D01*
X5500Y3627D02*
X5742Y3869D01*
X5752Y3727D02*
X6400D01*
X5652Y3627D02*
X5752Y3727D01*
X5500Y3627D02*
X5652D01*
X5500Y3300D02*
X5589D01*
X5647Y3358D01*
Y3452D01*
X5822Y3627D01*
X5900D01*
X900Y4235D02*
X1235D01*
X1300Y4300D01*
X4118Y4967D02*
X4600D01*
X3900Y4750D02*
X4118Y4967D01*
X3100Y4655D02*
X3805D01*
X3900Y4750D01*
X5900Y3300D02*
X6227D01*
X6400Y3473D01*
X4150Y3300D02*
X4600D01*
X3900Y3550D02*
X4150Y3300D01*
X5830D02*
X5900D01*
X5705Y3175D02*
X5830Y3300D01*
X5058Y3175D02*
X5705D01*
X4999Y3233D02*
X5058Y3175D01*
X4999Y3300D02*
X5000D01*
Y3990D02*
Y4300D01*
Y3990D02*
X5114Y3876D01*
Y3414D02*
Y3876D01*
X5000Y3300D02*
X5114Y3414D01*
X2481Y4781D02*
X2642D01*
X2800Y4788D01*
Y4473D02*
Y4788D01*
X3100Y4136D02*
X3814D01*
X3900Y4050D01*
X4117Y1967D02*
X4600D01*
X3900Y1750D02*
X4117Y1967D01*
X3100Y1655D02*
X3805D01*
X3900Y1750D01*
X5900Y300D02*
X6227D01*
X6400Y473D01*
X4113Y337D02*
X4600D01*
X3900Y550D02*
X4113Y337D01*
X5000Y982D02*
Y1246D01*
Y982D02*
X5114Y869D01*
Y449D02*
Y869D01*
X5000Y335D02*
X5114Y449D01*
X1715Y1256D02*
X1822Y1363D01*
Y1657D01*
X1715Y1764D02*
X1822Y1657D01*
X1623Y1510D02*
X1715D01*
X1433Y1700D02*
X1623Y1510D01*
X5742Y870D02*
Y1300D01*
X5500Y627D02*
X5742Y870D01*
X5752Y727D02*
X6400D01*
X5652Y627D02*
X5752Y727D01*
X5500Y627D02*
X5652D01*
X4982Y600D02*
X5000D01*
X4888Y843D02*
X4982Y749D01*
X4888Y843D02*
Y1308D01*
X4936Y1356D01*
X5106D01*
X5258Y1204D01*
Y711D02*
Y1204D01*
Y711D02*
X5342Y627D01*
X5500D01*
X900Y1235D02*
X1235D01*
X1300Y1300D01*
X2477Y1764D02*
X2741Y1500D01*
X2800Y1473D01*
X4286Y664D02*
X4600D01*
X3900Y1050D02*
X4286Y664D01*
X3100Y1145D02*
X3805D01*
X3900Y1050D01*
X2477Y1002D02*
X2640Y1164D01*
Y1226D01*
X2741Y1327D01*
X2800D01*
X3100Y1000D02*
X3450D01*
X3900Y550D01*
X2910Y1800D02*
X3100D01*
X2873Y1764D02*
X2910Y1800D01*
X2477Y1764D02*
X2873D01*
X2481Y4019D02*
X2689D01*
X2800Y4130D01*
X3100Y3991D02*
X3459D01*
X3900Y3550D01*
X5467Y4804D02*
X5506D01*
X5375Y4988D02*
X5467Y4897D01*
X2904Y4136D02*
X3100D01*
X2800Y4240D02*
X2904Y4136D01*
X2800Y4240D02*
Y4327D01*
X2904Y1145D02*
X3100D01*
X2800Y1249D02*
X2904Y1145D01*
X2800Y1249D02*
Y1327D01*
X4323Y3627D02*
X4600D01*
X3900Y4050D02*
X4323Y3627D01*
X3229Y2250D02*
X3900D01*
X3100Y2121D02*
X3229Y2250D01*
X3100Y1800D02*
Y2121D01*
X3229Y5250D02*
X3900D01*
X3100Y5121D02*
X3229Y5250D01*
X3100Y4800D02*
Y5121D01*
X4954Y3565D02*
X5000D01*
X4888Y4077D02*
X4954Y4010D01*
X4888Y4077D02*
Y4379D01*
X4936Y4427D01*
X5180D01*
X5342Y4264D01*
Y3708D02*
Y4264D01*
Y3708D02*
X5424Y3627D01*
X5500D01*
X6400Y473D02*
X6516Y589D01*
Y1754D01*
X6370Y1900D02*
X6516Y1754D01*
X6400Y3473D02*
X6516Y3589D01*
Y4754D01*
X6370Y4900D02*
X6516Y4754D01*
X1719Y4019D02*
Y4273D01*
X5000Y4554D02*
Y4968D01*
X5761Y4560D02*
Y4804D01*
X5742Y4541D02*
X5761Y4560D01*
X5742Y4300D02*
Y4541D01*
X5506Y4575D02*
Y4804D01*
X5457Y4526D02*
X5506Y4575D01*
X5457Y4300D02*
Y4526D01*
X2481Y4273D02*
Y4527D01*
X1133Y4700D02*
X1168D01*
X933Y4500D02*
X1133Y4700D01*
X900Y4500D02*
X933D01*
X714D02*
X900D01*
X686Y4527D02*
X714Y4500D01*
X500Y4527D02*
X686D01*
X4257Y5233D02*
X4600D01*
X4240Y5250D02*
X4257Y5233D01*
X3900Y5250D02*
X4240D01*
X5693D02*
X6370D01*
X5675Y5233D02*
X5693Y5250D01*
X5000Y5233D02*
X5675D01*
X4799D02*
X5000D01*
X4799Y5233D02*
X4799Y5233D01*
X4600Y5233D02*
X4799D01*
X5744Y300D02*
X5900D01*
X5652Y208D02*
X5744Y300D01*
X5312Y208D02*
X5652D01*
X5185Y335D02*
X5312Y208D01*
X5000Y335D02*
X5185D01*
X4800D02*
X5000D01*
X4799Y337D02*
X4800Y335D01*
X4600Y337D02*
X4799D01*
X1715Y1002D02*
Y1256D01*
X5505Y1571D02*
Y1800D01*
X5457Y1524D02*
X5505Y1571D01*
X2477Y1256D02*
Y1510D01*
X1133Y1700D02*
X1168D01*
X933Y1500D02*
X1133Y1700D01*
X900Y1500D02*
X933D01*
X714D02*
X900D01*
X686Y1527D02*
X714Y1500D01*
X500Y1527D02*
X686D01*
X5760Y1557D02*
Y1800D01*
X5742Y1539D02*
X5760Y1557D01*
X5742Y1300D02*
Y1539D01*
X5000Y1500D02*
Y1968D01*
X5862Y627D02*
X5900D01*
X5535Y300D02*
X5862Y627D01*
X5500Y300D02*
X5535D01*
X5693Y2250D02*
X6370D01*
X5675Y2233D02*
X5693Y2250D01*
X5000Y2233D02*
X5675D01*
X4257D02*
X4600D01*
X4240Y2250D02*
X4257Y2233D01*
X3900Y2250D02*
X4240D01*
X4600Y2233D02*
X5000D01*
D16*
X5742Y1300D02*
D03*
X5457D02*
D03*
X5742Y4300D02*
D03*
X5457D02*
D03*
D17*
X3100Y4800D02*
D03*
Y4655D02*
D03*
X2800Y4473D02*
D03*
Y4327D02*
D03*
X3100Y1800D02*
D03*
Y1655D02*
D03*
X2800Y1473D02*
D03*
Y1327D02*
D03*
X3100Y1000D02*
D03*
Y1145D02*
D03*
X3100Y3991D02*
D03*
Y4136D02*
D03*
D18*
X900Y4500D02*
D03*
Y4235D02*
D03*
Y1500D02*
D03*
Y1235D02*
D03*
X5000Y3565D02*
D03*
Y3300D02*
D03*
Y5233D02*
D03*
Y4968D02*
D03*
X4600Y5233D02*
D03*
Y4967D02*
D03*
X5000Y335D02*
D03*
Y600D02*
D03*
X4600Y1967D02*
D03*
Y2233D02*
D03*
X5000Y1968D02*
D03*
Y2233D02*
D03*
D19*
X1168Y4700D02*
D03*
X1433D02*
D03*
X1168Y1700D02*
D03*
X1433D02*
D03*
D20*
X4600Y3627D02*
D03*
Y3300D02*
D03*
X5500Y300D02*
D03*
Y627D02*
D03*
X5900D02*
D03*
Y300D02*
D03*
X4600Y337D02*
D03*
Y664D02*
D03*
X5900Y3627D02*
D03*
Y3300D02*
D03*
X5500D02*
D03*
Y3627D02*
D03*
D21*
X5761Y4804D02*
D03*
X5760Y1800D02*
D03*
D22*
X5506Y4804D02*
D03*
X5505Y1800D02*
D03*
D31*
X1715Y1764D02*
D03*
X1719Y4781D02*
D03*
D32*
X1715Y1510D02*
D03*
Y1256D02*
D03*
Y1002D02*
D03*
X2477D02*
D03*
Y1256D02*
D03*
Y1510D02*
D03*
Y1764D02*
D03*
X2481Y4781D02*
D03*
Y4527D02*
D03*
Y4273D02*
D03*
Y4019D02*
D03*
X1719D02*
D03*
Y4273D02*
D03*
Y4527D02*
D03*
D33*
X500D02*
D03*
Y1527D02*
D03*
X6400Y727D02*
D03*
X6400Y3727D02*
D03*
D34*
X3900Y4050D02*
D03*
Y4750D02*
D03*
X3900Y1750D02*
D03*
Y1050D02*
D03*
D35*
X3900Y5250D02*
D03*
X3900Y2250D02*
D03*
Y550D02*
D03*
X3900Y3550D02*
D03*
D39*
X6400Y473D02*
D03*
X500Y1273D02*
D03*
Y4273D02*
D03*
X6400Y3473D02*
D03*
D41*
X6370Y1550D02*
D03*
Y1900D02*
D03*
X6370Y4550D02*
D03*
Y4900D02*
D03*
D42*
X6370Y2250D02*
D03*
X6370Y5250D02*
D03*
D43*
X5000Y1246D02*
D03*
Y1500D02*
D03*
X1300Y1046D02*
D03*
Y1300D02*
D03*
X5000Y4300D02*
D03*
Y4554D02*
D03*
X1300Y4046D02*
D03*
Y4300D02*
D03*
D44*
X5457Y2047D02*
D03*
X5375Y4988D02*
D03*
M02*
