G04*
G04 #@! TF.GenerationSoftware,Altium Limited,Altium Designer,23.1.1 (15)*
G04*
G04 Layer_Color=32768*
%FSLAX42Y42*%
%MOMM*%
G71*
G04*
G04 #@! TF.SameCoordinates,2A6C1220-FB5B-44CC-9D41-84C089C77491*
G04*
G04*
G04 #@! TF.FilePolarity,Positive*
G04*
G01*
G75*
%ADD12C,0.20*%
%ADD45C,0.05*%
D12*
X3900Y5535D02*
G03*
X3900Y4465I0J-535D01*
G01*
D02*
G03*
X3900Y5535I0J535D01*
G01*
Y2535D02*
G03*
X3900Y1465I0J-535D01*
G01*
D02*
G03*
X3900Y2535I0J535D01*
G01*
Y265D02*
G03*
X3900Y1335I0J535D01*
G01*
D02*
G03*
X3900Y265I0J-535D01*
G01*
Y3265D02*
G03*
X3900Y4335I0J535D01*
G01*
D02*
G03*
X3900Y3265I0J-535D01*
G01*
X1635Y1895D02*
X2557D01*
Y870D02*
Y1895D01*
X1635Y870D02*
X2557D01*
X1635D02*
Y1895D01*
X6544Y317D02*
Y883D01*
X6257Y317D02*
X6544D01*
X6257D02*
Y883D01*
X6544D01*
X643Y1117D02*
Y1683D01*
X356Y1117D02*
X643D01*
X356D02*
Y1683D01*
X643D01*
X1639Y3887D02*
Y4912D01*
Y3887D02*
X2561D01*
Y4912D01*
X1639D02*
X2561D01*
X643Y4117D02*
Y4683D01*
X356Y4117D02*
X643D01*
X356D02*
Y4683D01*
X643D01*
X6544Y3317D02*
Y3883D01*
X6257Y3317D02*
X6544D01*
X6257D02*
Y3883D01*
X6544D01*
D45*
X5230Y1373D02*
G03*
X5230Y1373I-230J0D01*
G01*
X1530Y1173D02*
G03*
X1530Y1173I-230J0D01*
G01*
X5230Y4427D02*
G03*
X5230Y4427I-230J0D01*
G01*
X1530Y4173D02*
G03*
X1530Y4173I-230J0D01*
G01*
X6790Y1355D02*
Y2485D01*
X6010Y1355D02*
X6790D01*
X6010D02*
Y2485D01*
X6790D01*
X4950Y1373D02*
X5050D01*
X5000Y1323D02*
Y1423D01*
X1250Y1173D02*
X1350D01*
X1300Y1123D02*
Y1223D01*
X6790Y4355D02*
Y5485D01*
X6010Y4355D02*
X6790D01*
X6010D02*
Y5485D01*
X6790D01*
X4950Y4427D02*
X5050D01*
X5000Y4377D02*
Y4477D01*
X1250Y4173D02*
X1350D01*
X1300Y4123D02*
Y4223D01*
M02*
