M48
;Layer_Color=9474304
;FILE_FORMAT=4:2
METRIC,LZ
;TYPE=PLATED
T1F00S00C0.40
T2F00S00C0.80
T3F00S00C0.90
T4F00S00C1.00
T5F00S00C1.02
T6F00S00C1.30
;TYPE=NON_PLATED
T7F00S00C1.90
%
T01
X005457Y002047
X005375Y004988
T02
X0039Y00055
Y00105
Y00175
Y00225
X0039Y00355
Y00405
Y00475
Y00525
X00637
T03
X001715Y001002
Y001256
Y00151
Y001764
X002477
Y00151
Y001256
Y001002
X002481Y004019
X001719
Y004273
Y004527
Y004781
X002481
Y004527
Y004273
T04
X005Y001246
Y0015
X0013Y0013
Y001046
Y004046
Y0043
X005
Y004554
T05
X0064Y000473
Y000727
X0064Y003473
Y003727
X0005Y001527
Y001273
Y004273
Y004527
T06
X00637Y00155
Y0019
Y00225
X00637Y00455
Y0049
T07
X006868Y000231
X00025Y005475
M30
