G04*
G04 #@! TF.GenerationSoftware,Altium Limited,Altium Designer,23.1.1 (15)*
G04*
G04 Layer_Color=16711935*
%FSLAX42Y42*%
%MOMM*%
G71*
G04*
G04 #@! TF.SameCoordinates,2A6C1220-FB5B-44CC-9D41-84C089C77491*
G04*
G04*
G04 #@! TF.FilePolarity,Negative*
G04*
G01*
G75*
%ADD30C,0.20*%
%ADD31R,1.40X1.40*%
%ADD32C,1.40*%
%ADD33R,1.57X1.57*%
%ADD34R,1.30X1.30*%
%ADD35C,1.30*%
%ADD36C,2.15*%
G04:AMPARAMS|DCode=37|XSize=2.15mm|YSize=2.15mm|CornerRadius=0.59mm|HoleSize=0mm|Usage=FLASHONLY|Rotation=270.000|XOffset=0mm|YOffset=0mm|HoleType=Round|Shape=RoundedRectangle|*
%AMROUNDEDRECTD37*
21,1,2.15,0.98,0,0,270.0*
21,1,0.98,2.15,0,0,270.0*
1,1,1.18,-0.49,-0.49*
1,1,1.18,-0.49,0.49*
1,1,1.18,0.49,0.49*
1,1,1.18,0.49,-0.49*
%
%ADD37ROUNDEDRECTD37*%
%ADD38C,1.70*%
%ADD39C,1.57*%
%ADD40C,0.70*%
D30*
X250Y5475D02*
D03*
X6868Y231D02*
D03*
D31*
X1715Y1764D02*
D03*
X1719Y4781D02*
D03*
D32*
X1715Y1510D02*
D03*
Y1256D02*
D03*
Y1002D02*
D03*
X2477D02*
D03*
Y1256D02*
D03*
Y1510D02*
D03*
Y1764D02*
D03*
X2481Y4781D02*
D03*
Y4527D02*
D03*
Y4273D02*
D03*
Y4019D02*
D03*
X1719D02*
D03*
Y4273D02*
D03*
Y4527D02*
D03*
D33*
X500D02*
D03*
Y1527D02*
D03*
X6400Y727D02*
D03*
X6400Y3727D02*
D03*
D34*
X3900Y4050D02*
D03*
Y4750D02*
D03*
X3900Y1750D02*
D03*
Y1050D02*
D03*
D35*
X3900Y5250D02*
D03*
X3900Y2250D02*
D03*
Y550D02*
D03*
X3900Y3550D02*
D03*
D36*
X6370Y1550D02*
D03*
Y1900D02*
D03*
X6370Y4550D02*
D03*
Y4900D02*
D03*
D37*
X6370Y2250D02*
D03*
X6370Y5250D02*
D03*
D38*
X5000Y1246D02*
D03*
Y1500D02*
D03*
X1300Y1046D02*
D03*
Y1300D02*
D03*
X5000Y4300D02*
D03*
Y4554D02*
D03*
X1300Y4046D02*
D03*
Y4300D02*
D03*
D39*
X6400Y473D02*
D03*
X500Y1273D02*
D03*
Y4273D02*
D03*
X6400Y3473D02*
D03*
D40*
X5457Y2047D02*
D03*
X5375Y4988D02*
D03*
M02*
