G04*
G04 #@! TF.GenerationSoftware,Altium Limited,Altium Designer,23.1.1 (15)*
G04*
G04 Layer_Color=128*
%FSLAX42Y42*%
%MOMM*%
G71*
G04*
G04 #@! TF.SameCoordinates,2A6C1220-FB5B-44CC-9D41-84C089C77491*
G04*
G04*
G04 #@! TF.FilePolarity,Positive*
G04*
G01*
G75*
%ADD48C,0.13*%
D48*
X155Y5475D02*
X345D01*
X250Y5380D02*
Y5570D01*
X6773Y231D02*
X6963D01*
X6868Y136D02*
Y326D01*
X1670Y1764D02*
X1760D01*
X1715Y1719D02*
Y1809D01*
X1670Y1510D02*
X1760D01*
X1715Y1465D02*
Y1555D01*
X1670Y1256D02*
X1760D01*
X1715Y1211D02*
Y1301D01*
X1670Y1002D02*
X1760D01*
X1715Y957D02*
Y1047D01*
X2432Y1002D02*
X2522D01*
X2477Y957D02*
Y1047D01*
X2432Y1256D02*
X2522D01*
X2477Y1211D02*
Y1301D01*
X2432Y1510D02*
X2522D01*
X2477Y1465D02*
Y1555D01*
X2432Y1764D02*
X2522D01*
X2477Y1719D02*
Y1809D01*
X449Y4527D02*
X551D01*
X500Y4476D02*
Y4578D01*
X449Y1527D02*
X551D01*
X500Y1476D02*
Y1578D01*
X3860Y4050D02*
X3940D01*
X3900Y4010D02*
Y4090D01*
X3860Y4750D02*
X3940D01*
X3900Y4710D02*
Y4790D01*
X3860Y5250D02*
X3940D01*
X3900Y5210D02*
Y5290D01*
X6305Y1550D02*
X6435D01*
X6370Y1485D02*
Y1615D01*
X6305Y2250D02*
X6435D01*
X6370Y2185D02*
Y2315D01*
X6305Y1900D02*
X6435D01*
X6370Y1835D02*
Y1965D01*
X3860Y1750D02*
X3940D01*
X3900Y1710D02*
Y1790D01*
X3860Y2250D02*
X3940D01*
X3900Y2210D02*
Y2290D01*
X4950Y1246D02*
X5050D01*
X5000Y1196D02*
Y1296D01*
X4950Y1500D02*
X5050D01*
X5000Y1450D02*
Y1550D01*
X6349Y727D02*
X6451D01*
X6400Y676D02*
Y778D01*
X6349Y473D02*
X6451D01*
X6400Y422D02*
Y524D01*
X1250Y1046D02*
X1350D01*
X1300Y996D02*
Y1096D01*
X1250Y1300D02*
X1350D01*
X1300Y1250D02*
Y1350D01*
X3860Y1050D02*
X3940D01*
X3900Y1010D02*
Y1090D01*
X3860Y550D02*
X3940D01*
X3900Y510D02*
Y590D01*
X449Y1273D02*
X551D01*
X500Y1222D02*
Y1324D01*
X6305Y4550D02*
X6435D01*
X6370Y4485D02*
Y4615D01*
X6330Y5250D02*
X6410D01*
X6370Y5210D02*
Y5290D01*
X6305Y4900D02*
X6435D01*
X6370Y4835D02*
Y4965D01*
X4950Y4300D02*
X5050D01*
X5000Y4250D02*
Y4350D01*
X4950Y4554D02*
X5050D01*
X5000Y4504D02*
Y4604D01*
X2436Y4781D02*
X2526D01*
X2481Y4736D02*
Y4826D01*
X2436Y4527D02*
X2526D01*
X2481Y4482D02*
Y4572D01*
X2436Y4273D02*
X2526D01*
X2481Y4228D02*
Y4318D01*
X2436Y4019D02*
X2526D01*
X2481Y3974D02*
Y4064D01*
X1674Y4019D02*
X1764D01*
X1719Y3974D02*
Y4064D01*
X1674Y4273D02*
X1764D01*
X1719Y4228D02*
Y4318D01*
X1674Y4527D02*
X1764D01*
X1719Y4482D02*
Y4572D01*
X1674Y4781D02*
X1764D01*
X1719Y4736D02*
Y4826D01*
X3860Y3550D02*
X3940D01*
X3900Y3510D02*
Y3590D01*
X449Y4273D02*
X551D01*
X500Y4222D02*
Y4324D01*
X1250Y4046D02*
X1350D01*
X1300Y3996D02*
Y4096D01*
X1250Y4300D02*
X1350D01*
X1300Y4250D02*
Y4350D01*
X6349Y3727D02*
X6451D01*
X6400Y3676D02*
Y3778D01*
X6349Y3473D02*
X6451D01*
X6400Y3422D02*
Y3524D01*
X5437Y2047D02*
X5477D01*
X5457Y2027D02*
Y2067D01*
X5355Y4988D02*
X5395D01*
X5375Y4968D02*
Y5008D01*
M02*
