G04*
G04 #@! TF.GenerationSoftware,Altium Limited,Altium Designer,23.1.1 (15)*
G04*
G04 Layer_Physical_Order=2*
G04 Layer_Color=16711680*
%FSLAX42Y42*%
%MOMM*%
G71*
G04*
G04 #@! TF.SameCoordinates,2A6C1220-FB5B-44CC-9D41-84C089C77491*
G04*
G04*
G04 #@! TF.FilePolarity,Positive*
G04*
G01*
G75*
%ADD12C,0.20*%
%ADD31R,1.40X1.40*%
%ADD32C,1.40*%
%ADD33R,1.57X1.57*%
%ADD34R,1.30X1.30*%
%ADD35C,1.30*%
%ADD39C,1.57*%
%ADD41C,1.95*%
G04:AMPARAMS|DCode=42|XSize=1.95mm|YSize=1.95mm|CornerRadius=0.49mm|HoleSize=0mm|Usage=FLASHONLY|Rotation=270.000|XOffset=0mm|YOffset=0mm|HoleType=Round|Shape=RoundedRectangle|*
%AMROUNDEDRECTD42*
21,1,1.95,0.98,0,0,270.0*
21,1,0.98,1.95,0,0,270.0*
1,1,0.98,-0.49,-0.49*
1,1,0.98,-0.49,0.49*
1,1,0.98,0.49,0.49*
1,1,0.98,0.49,-0.49*
%
%ADD42ROUNDEDRECTD42*%
%ADD43C,1.50*%
%ADD44C,0.50*%
G36*
X6625Y3100D02*
X500D01*
Y4169D01*
X514D01*
X540Y4177D01*
X544Y4179D01*
X702Y4021D01*
X713Y4013D01*
X727Y4010D01*
X1206D01*
X1207Y4007D01*
X1220Y3985D01*
X1239Y3966D01*
X1261Y3953D01*
X1287Y3946D01*
X1313D01*
X1339Y3953D01*
X1361Y3966D01*
X1380Y3985D01*
X1393Y4007D01*
X1394Y4010D01*
X1479D01*
X1496Y3994D01*
X1508Y3986D01*
X1521Y3983D01*
X1630D01*
X1630Y3982D01*
X1643Y3961D01*
X1661Y3943D01*
X1682Y3930D01*
X1706Y3924D01*
X1732D01*
X1756Y3930D01*
X1777Y3943D01*
X1795Y3961D01*
X1808Y3982D01*
X1814Y4006D01*
Y4032D01*
X1808Y4056D01*
X1795Y4077D01*
X1777Y4095D01*
X1756Y4108D01*
X1732Y4114D01*
X1706D01*
X1682Y4108D01*
X1661Y4095D01*
X1643Y4077D01*
X1630Y4056D01*
X1630Y4055D01*
X1536D01*
X1519Y4071D01*
X1508Y4079D01*
X1494Y4082D01*
X1394D01*
X1393Y4085D01*
X1380Y4107D01*
X1361Y4126D01*
X1339Y4139D01*
X1313Y4146D01*
X1287D01*
X1261Y4139D01*
X1239Y4126D01*
X1220Y4107D01*
X1207Y4085D01*
X1206Y4082D01*
X742D01*
X594Y4229D01*
X596Y4233D01*
X603Y4259D01*
Y4287D01*
X596Y4313D01*
X583Y4337D01*
X564Y4356D01*
X540Y4369D01*
X514Y4376D01*
X500D01*
Y4423D01*
X603D01*
Y4630D01*
X500D01*
Y5600D01*
X6625D01*
Y3100D01*
D02*
G37*
G36*
Y100D02*
X500D01*
Y1169D01*
X514D01*
X540Y1177D01*
X544Y1179D01*
X702Y1021D01*
X713Y1013D01*
X727Y1010D01*
X1206D01*
X1207Y1007D01*
X1220Y985D01*
X1239Y966D01*
X1261Y953D01*
X1287Y946D01*
X1313D01*
X1339Y953D01*
X1361Y966D01*
X1380Y985D01*
X1393Y1007D01*
X1394Y1010D01*
X1469D01*
X1503Y977D01*
X1515Y969D01*
X1528Y966D01*
X1626D01*
X1627Y965D01*
X1639Y944D01*
X1657Y926D01*
X1679Y913D01*
X1703Y907D01*
X1728D01*
X1752Y913D01*
X1774Y926D01*
X1791Y944D01*
X1804Y965D01*
X1810Y989D01*
Y1014D01*
X1804Y1039D01*
X1791Y1060D01*
X1774Y1078D01*
X1752Y1090D01*
X1728Y1097D01*
X1703D01*
X1679Y1090D01*
X1657Y1078D01*
X1639Y1060D01*
X1627Y1039D01*
X1626Y1038D01*
X1543D01*
X1509Y1071D01*
X1498Y1079D01*
X1484Y1082D01*
X1394D01*
X1393Y1085D01*
X1380Y1107D01*
X1361Y1126D01*
X1339Y1139D01*
X1313Y1146D01*
X1287D01*
X1261Y1139D01*
X1239Y1126D01*
X1220Y1107D01*
X1207Y1085D01*
X1206Y1082D01*
X742D01*
X594Y1229D01*
X596Y1233D01*
X603Y1259D01*
Y1287D01*
X596Y1313D01*
X583Y1337D01*
X564Y1356D01*
X540Y1369D01*
X514Y1377D01*
X500D01*
Y1423D01*
X603D01*
Y1631D01*
X500D01*
Y2600D01*
X6625D01*
Y100D01*
D02*
G37*
%LPC*%
G36*
X3912Y5340D02*
X3888D01*
X3865Y5334D01*
X3845Y5322D01*
X3828Y5305D01*
X3816Y5285D01*
X3810Y5262D01*
Y5238D01*
X3816Y5215D01*
X3828Y5195D01*
X3845Y5178D01*
X3865Y5166D01*
X3888Y5160D01*
X3912D01*
X3935Y5166D01*
X3955Y5178D01*
X3972Y5195D01*
X3984Y5215D01*
X3990Y5238D01*
Y5262D01*
X3984Y5285D01*
X3972Y5305D01*
X3955Y5322D01*
X3935Y5334D01*
X3912Y5340D01*
D02*
G37*
G36*
X6419Y5373D02*
X6321D01*
X6302Y5371D01*
X6284Y5363D01*
X6269Y5351D01*
X6257Y5336D01*
X6249Y5318D01*
X6247Y5299D01*
Y5201D01*
X6249Y5182D01*
X6257Y5164D01*
X6269Y5149D01*
X6284Y5137D01*
X6302Y5129D01*
X6321Y5127D01*
X6419D01*
X6438Y5129D01*
X6456Y5137D01*
X6471Y5149D01*
X6483Y5164D01*
X6491Y5182D01*
X6493Y5201D01*
Y5299D01*
X6491Y5318D01*
X6483Y5336D01*
X6471Y5351D01*
X6456Y5363D01*
X6438Y5371D01*
X6419Y5373D01*
D02*
G37*
G36*
X5385Y5038D02*
X5365D01*
X5347Y5031D01*
X5340Y5024D01*
X2942D01*
X2929Y5021D01*
X2917Y5014D01*
X2519Y4615D01*
X2518Y4616D01*
X2494Y4622D01*
X2468D01*
X2444Y4616D01*
X2423Y4603D01*
X2405Y4585D01*
X2392Y4564D01*
X2386Y4540D01*
Y4514D01*
X2392Y4490D01*
X2405Y4469D01*
X2423Y4451D01*
X2444Y4438D01*
X2468Y4432D01*
X2494D01*
X2518Y4438D01*
X2539Y4451D01*
X2557Y4469D01*
X2570Y4490D01*
X2576Y4514D01*
Y4540D01*
X2570Y4564D01*
X2569Y4565D01*
X2957Y4953D01*
X5340D01*
X5347Y4946D01*
X5365Y4938D01*
X5385D01*
X5404Y4946D01*
X5418Y4960D01*
X5425Y4978D01*
Y4998D01*
X5418Y5017D01*
X5404Y5031D01*
X5385Y5038D01*
D02*
G37*
G36*
X6386Y5023D02*
X6383D01*
Y4913D01*
X6493D01*
Y4916D01*
X6485Y4947D01*
X6468Y4975D01*
X6445Y4998D01*
X6417Y5015D01*
X6386Y5023D01*
D02*
G37*
G36*
X6357D02*
X6354D01*
X6323Y5015D01*
X6295Y4998D01*
X6272Y4975D01*
X6255Y4947D01*
X6247Y4916D01*
Y4913D01*
X6357D01*
Y5023D01*
D02*
G37*
G36*
X6493Y4887D02*
X6383D01*
Y4777D01*
X6386D01*
X6417Y4785D01*
X6445Y4802D01*
X6468Y4825D01*
X6485Y4853D01*
X6493Y4884D01*
Y4887D01*
D02*
G37*
G36*
X6357D02*
X6247D01*
Y4884D01*
X6255Y4853D01*
X6272Y4825D01*
X6295Y4802D01*
X6323Y4785D01*
X6354Y4777D01*
X6357D01*
Y4887D01*
D02*
G37*
G36*
X3887Y4840D02*
X3810D01*
Y4763D01*
X3887D01*
Y4840D01*
D02*
G37*
G36*
X2494Y4876D02*
X2468D01*
X2444Y4870D01*
X2423Y4857D01*
X2405Y4839D01*
X2392Y4818D01*
X2386Y4794D01*
Y4768D01*
X2392Y4744D01*
X2405Y4723D01*
X2423Y4705D01*
X2444Y4692D01*
X2468Y4686D01*
X2494D01*
X2518Y4692D01*
X2539Y4705D01*
X2557Y4723D01*
X2570Y4744D01*
X2576Y4768D01*
Y4794D01*
X2570Y4818D01*
X2557Y4839D01*
X2539Y4857D01*
X2518Y4870D01*
X2494Y4876D01*
D02*
G37*
G36*
X1814D02*
X1624D01*
Y4686D01*
X1814D01*
Y4876D01*
D02*
G37*
G36*
X3887Y4737D02*
X3810D01*
Y4660D01*
X3887D01*
Y4737D01*
D02*
G37*
G36*
X5013Y4654D02*
X4987D01*
X4961Y4647D01*
X4939Y4634D01*
X4920Y4615D01*
X4907Y4593D01*
X4900Y4567D01*
Y4541D01*
X4907Y4515D01*
X4920Y4493D01*
X4939Y4474D01*
X4961Y4461D01*
X4987Y4454D01*
X5013D01*
X5039Y4461D01*
X5061Y4474D01*
X5080Y4493D01*
X5093Y4515D01*
X5100Y4541D01*
Y4567D01*
X5093Y4593D01*
X5080Y4615D01*
X5061Y4634D01*
X5039Y4647D01*
X5013Y4654D01*
D02*
G37*
G36*
X1732Y4622D02*
X1706D01*
X1682Y4616D01*
X1661Y4603D01*
X1643Y4585D01*
X1630Y4564D01*
X1624Y4540D01*
Y4514D01*
X1630Y4490D01*
X1643Y4469D01*
X1661Y4451D01*
X1682Y4438D01*
X1706Y4432D01*
X1732D01*
X1756Y4438D01*
X1777Y4451D01*
X1795Y4469D01*
X1808Y4490D01*
X1814Y4514D01*
Y4540D01*
X1808Y4564D01*
X1795Y4585D01*
X1777Y4603D01*
X1756Y4616D01*
X1732Y4622D01*
D02*
G37*
G36*
X6386Y4672D02*
X6354D01*
X6323Y4664D01*
X6295Y4648D01*
X6272Y4625D01*
X6256Y4597D01*
X6248Y4566D01*
Y4534D01*
X6256Y4503D01*
X6262Y4492D01*
X5855Y4086D01*
X3990D01*
Y4140D01*
X3810D01*
Y3960D01*
X3990D01*
Y4014D01*
X5870D01*
X5884Y4017D01*
X5895Y4025D01*
X6312Y4442D01*
X6323Y4436D01*
X6354Y4427D01*
X6386D01*
X6417Y4436D01*
X6445Y4452D01*
X6468Y4475D01*
X6484Y4503D01*
X6493Y4534D01*
Y4566D01*
X6484Y4597D01*
X6468Y4625D01*
X6445Y4648D01*
X6417Y4664D01*
X6386Y4672D01*
D02*
G37*
G36*
X5013Y4400D02*
X5013D01*
Y4313D01*
X5100D01*
Y4313D01*
X5094Y4339D01*
X5080Y4362D01*
X5062Y4380D01*
X5039Y4394D01*
X5013Y4400D01*
D02*
G37*
G36*
X3990Y4840D02*
X3913D01*
Y4750D01*
Y4660D01*
X3990D01*
Y4714D01*
X4535D01*
X4908Y4342D01*
X4906Y4339D01*
X4900Y4313D01*
Y4313D01*
X4987D01*
Y4400D01*
X4987D01*
X4961Y4394D01*
X4958Y4392D01*
X4575Y4775D01*
X4564Y4783D01*
X4550Y4786D01*
X3990D01*
Y4840D01*
D02*
G37*
G36*
X1313Y4400D02*
X1287D01*
X1261Y4393D01*
X1239Y4380D01*
X1220Y4361D01*
X1207Y4339D01*
X1200Y4313D01*
Y4287D01*
X1207Y4261D01*
X1220Y4239D01*
X1239Y4220D01*
X1261Y4207D01*
X1287Y4200D01*
X1313D01*
X1339Y4207D01*
X1361Y4220D01*
X1380Y4239D01*
X1393Y4261D01*
X1400Y4287D01*
Y4313D01*
X1393Y4339D01*
X1380Y4361D01*
X1361Y4380D01*
X1339Y4393D01*
X1313Y4400D01*
D02*
G37*
G36*
X5100Y4287D02*
X5013D01*
Y4200D01*
X5013D01*
X5039Y4206D01*
X5062Y4220D01*
X5080Y4238D01*
X5094Y4261D01*
X5100Y4287D01*
Y4287D01*
D02*
G37*
G36*
X4987D02*
X4900D01*
Y4287D01*
X4906Y4261D01*
X4920Y4238D01*
X4938Y4220D01*
X4961Y4206D01*
X4987Y4200D01*
X4987D01*
Y4287D01*
D02*
G37*
G36*
X2494Y4368D02*
X2468D01*
X2444Y4362D01*
X2423Y4349D01*
X2405Y4331D01*
X2392Y4310D01*
X2386Y4286D01*
Y4260D01*
X2392Y4236D01*
X2405Y4215D01*
X2423Y4197D01*
X2444Y4184D01*
X2468Y4178D01*
X2494D01*
X2518Y4184D01*
X2539Y4197D01*
X2557Y4215D01*
X2570Y4236D01*
X2576Y4260D01*
Y4286D01*
X2570Y4310D01*
X2557Y4331D01*
X2539Y4349D01*
X2518Y4362D01*
X2494Y4368D01*
D02*
G37*
G36*
X1732D02*
X1706D01*
X1682Y4362D01*
X1661Y4349D01*
X1643Y4331D01*
X1630Y4310D01*
X1624Y4286D01*
Y4260D01*
X1630Y4236D01*
X1643Y4215D01*
X1661Y4197D01*
X1682Y4184D01*
X1706Y4178D01*
X1732D01*
X1756Y4184D01*
X1777Y4197D01*
X1795Y4215D01*
X1808Y4236D01*
X1814Y4260D01*
Y4286D01*
X1808Y4310D01*
X1795Y4331D01*
X1777Y4349D01*
X1756Y4362D01*
X1732Y4368D01*
D02*
G37*
G36*
X2494Y4114D02*
X2468D01*
X2444Y4108D01*
X2423Y4095D01*
X2405Y4077D01*
X2392Y4056D01*
X2386Y4032D01*
Y4006D01*
X2392Y3982D01*
X2405Y3961D01*
X2423Y3943D01*
X2444Y3930D01*
X2468Y3924D01*
X2494D01*
X2518Y3930D01*
X2539Y3943D01*
X2557Y3961D01*
X2570Y3982D01*
X2576Y4006D01*
Y4032D01*
X2570Y4056D01*
X2557Y4077D01*
X2539Y4095D01*
X2518Y4108D01*
X2494Y4114D01*
D02*
G37*
G36*
X6504Y3831D02*
X6297D01*
Y3624D01*
X6504D01*
Y3831D01*
D02*
G37*
G36*
X3913Y3640D02*
Y3563D01*
X3990D01*
X3984Y3585D01*
X3972Y3606D01*
X3956Y3622D01*
X3935Y3634D01*
X3913Y3640D01*
D02*
G37*
G36*
X3887D02*
X3865Y3634D01*
X3844Y3622D01*
X3828Y3606D01*
X3816Y3585D01*
X3810Y3563D01*
X3887D01*
Y3640D01*
D02*
G37*
G36*
X6414Y3577D02*
X6413D01*
Y3486D01*
X6504D01*
Y3487D01*
X6497Y3513D01*
X6483Y3537D01*
X6464Y3556D01*
X6440Y3570D01*
X6414Y3577D01*
D02*
G37*
G36*
X6387D02*
X6386D01*
X6360Y3570D01*
X6336Y3556D01*
X6317Y3537D01*
X6303Y3513D01*
X6296Y3487D01*
Y3486D01*
X6387D01*
Y3577D01*
D02*
G37*
G36*
X3990Y3537D02*
X3913D01*
Y3460D01*
X3935Y3466D01*
X3956Y3478D01*
X3972Y3494D01*
X3984Y3515D01*
X3990Y3537D01*
D02*
G37*
G36*
X3887D02*
X3810D01*
X3816Y3515D01*
X3828Y3494D01*
X3844Y3478D01*
X3865Y3466D01*
X3887Y3460D01*
Y3537D01*
D02*
G37*
G36*
X6504Y3460D02*
X6413D01*
Y3369D01*
X6414D01*
X6440Y3376D01*
X6464Y3390D01*
X6483Y3409D01*
X6497Y3433D01*
X6504Y3459D01*
Y3460D01*
D02*
G37*
G36*
X6387D02*
X6296D01*
Y3459D01*
X6303Y3433D01*
X6317Y3409D01*
X6336Y3390D01*
X6360Y3376D01*
X6386Y3369D01*
X6387D01*
Y3460D01*
D02*
G37*
G36*
X3912Y2340D02*
X3888D01*
X3865Y2334D01*
X3845Y2322D01*
X3828Y2305D01*
X3816Y2285D01*
X3810Y2262D01*
Y2238D01*
X3816Y2215D01*
X3828Y2195D01*
X3845Y2178D01*
X3865Y2166D01*
X3888Y2160D01*
X3912D01*
X3935Y2166D01*
X3955Y2178D01*
X3972Y2195D01*
X3984Y2215D01*
X3990Y2238D01*
Y2262D01*
X3984Y2285D01*
X3972Y2305D01*
X3955Y2322D01*
X3935Y2334D01*
X3912Y2340D01*
D02*
G37*
G36*
X6419Y2373D02*
X6321D01*
X6302Y2371D01*
X6284Y2363D01*
X6269Y2351D01*
X6257Y2336D01*
X6249Y2318D01*
X6247Y2299D01*
Y2201D01*
X6249Y2182D01*
X6257Y2164D01*
X6269Y2149D01*
X6284Y2137D01*
X6302Y2129D01*
X6321Y2127D01*
X6419D01*
X6438Y2129D01*
X6456Y2137D01*
X6471Y2149D01*
X6483Y2164D01*
X6491Y2182D01*
X6493Y2201D01*
Y2299D01*
X6491Y2318D01*
X6483Y2336D01*
X6471Y2351D01*
X6456Y2363D01*
X6438Y2371D01*
X6419Y2373D01*
D02*
G37*
G36*
X5467Y2097D02*
X5448D01*
X5429Y2089D01*
X5422Y2083D01*
X3014D01*
X3001Y2080D01*
X2989Y2072D01*
X2515Y1598D01*
X2514Y1598D01*
X2490Y1605D01*
X2465D01*
X2441Y1598D01*
X2419Y1586D01*
X2401Y1568D01*
X2389Y1547D01*
X2382Y1522D01*
Y1497D01*
X2389Y1473D01*
X2401Y1452D01*
X2419Y1434D01*
X2441Y1421D01*
X2465Y1415D01*
X2490D01*
X2514Y1421D01*
X2536Y1434D01*
X2553Y1452D01*
X2566Y1473D01*
X2572Y1497D01*
Y1522D01*
X2566Y1547D01*
X2565Y1547D01*
X3029Y2011D01*
X5422D01*
X5429Y2005D01*
X5448Y1997D01*
X5467D01*
X5486Y2005D01*
X5500Y2019D01*
X5507Y2037D01*
Y2057D01*
X5500Y2075D01*
X5486Y2089D01*
X5467Y2097D01*
D02*
G37*
G36*
X6386Y2023D02*
X6383D01*
Y1913D01*
X6493D01*
Y1916D01*
X6485Y1947D01*
X6468Y1975D01*
X6445Y1998D01*
X6417Y2015D01*
X6386Y2023D01*
D02*
G37*
G36*
X6357D02*
X6354D01*
X6323Y2015D01*
X6295Y1998D01*
X6272Y1975D01*
X6255Y1947D01*
X6247Y1916D01*
Y1913D01*
X6357D01*
Y2023D01*
D02*
G37*
G36*
X6493Y1887D02*
X6383D01*
Y1777D01*
X6386D01*
X6417Y1785D01*
X6445Y1802D01*
X6468Y1825D01*
X6485Y1853D01*
X6493Y1884D01*
Y1887D01*
D02*
G37*
G36*
X6357D02*
X6247D01*
Y1884D01*
X6255Y1853D01*
X6272Y1825D01*
X6295Y1802D01*
X6323Y1785D01*
X6354Y1777D01*
X6357D01*
Y1887D01*
D02*
G37*
G36*
X3887Y1840D02*
X3810D01*
Y1763D01*
X3887D01*
Y1840D01*
D02*
G37*
G36*
X2490Y1859D02*
X2465D01*
X2441Y1852D01*
X2419Y1840D01*
X2401Y1822D01*
X2389Y1801D01*
X2382Y1776D01*
Y1751D01*
X2389Y1727D01*
X2401Y1706D01*
X2419Y1688D01*
X2441Y1675D01*
X2465Y1669D01*
X2490D01*
X2514Y1675D01*
X2536Y1688D01*
X2553Y1706D01*
X2566Y1727D01*
X2572Y1751D01*
Y1776D01*
X2566Y1801D01*
X2553Y1822D01*
X2536Y1840D01*
X2514Y1852D01*
X2490Y1859D01*
D02*
G37*
G36*
X1810D02*
X1620D01*
Y1669D01*
X1810D01*
Y1859D01*
D02*
G37*
G36*
X3887Y1737D02*
X3810D01*
Y1660D01*
X3887D01*
Y1737D01*
D02*
G37*
G36*
X6386Y1672D02*
X6354D01*
X6323Y1664D01*
X6295Y1648D01*
X6272Y1625D01*
X6256Y1597D01*
X6248Y1566D01*
Y1534D01*
X6256Y1503D01*
X6262Y1492D01*
X5855Y1086D01*
X3990D01*
Y1140D01*
X3810D01*
Y960D01*
X3990D01*
Y1014D01*
X5870D01*
X5884Y1017D01*
X5895Y1025D01*
X6312Y1442D01*
X6323Y1436D01*
X6354Y1427D01*
X6386D01*
X6417Y1436D01*
X6445Y1452D01*
X6468Y1475D01*
X6484Y1503D01*
X6493Y1534D01*
Y1566D01*
X6484Y1597D01*
X6468Y1625D01*
X6445Y1648D01*
X6417Y1664D01*
X6386Y1672D01*
D02*
G37*
G36*
X1728Y1605D02*
X1703D01*
X1679Y1598D01*
X1657Y1586D01*
X1639Y1568D01*
X1627Y1547D01*
X1620Y1522D01*
Y1497D01*
X1627Y1473D01*
X1639Y1452D01*
X1657Y1434D01*
X1679Y1421D01*
X1703Y1415D01*
X1728D01*
X1752Y1421D01*
X1774Y1434D01*
X1791Y1452D01*
X1804Y1473D01*
X1810Y1497D01*
Y1522D01*
X1804Y1547D01*
X1791Y1568D01*
X1774Y1586D01*
X1752Y1598D01*
X1728Y1605D01*
D02*
G37*
G36*
X5013Y1600D02*
X4987D01*
X4961Y1593D01*
X4939Y1580D01*
X4920Y1561D01*
X4907Y1539D01*
X4900Y1513D01*
Y1487D01*
X4907Y1461D01*
X4920Y1439D01*
X4939Y1420D01*
X4961Y1407D01*
X4987Y1400D01*
X5013D01*
X5039Y1407D01*
X5061Y1420D01*
X5080Y1439D01*
X5093Y1461D01*
X5100Y1487D01*
Y1513D01*
X5093Y1539D01*
X5080Y1561D01*
X5061Y1580D01*
X5039Y1593D01*
X5013Y1600D01*
D02*
G37*
G36*
X5013Y1346D02*
X5013D01*
Y1259D01*
X5100D01*
Y1259D01*
X5094Y1285D01*
X5080Y1308D01*
X5062Y1326D01*
X5039Y1340D01*
X5013Y1346D01*
D02*
G37*
G36*
X3990Y1840D02*
X3913D01*
Y1750D01*
Y1660D01*
X3990D01*
Y1714D01*
X4481D01*
X4908Y1288D01*
X4906Y1285D01*
X4900Y1259D01*
Y1259D01*
X4987D01*
Y1346D01*
X4987D01*
X4961Y1340D01*
X4958Y1338D01*
X4521Y1775D01*
X4510Y1783D01*
X4496Y1786D01*
X3990D01*
Y1840D01*
D02*
G37*
G36*
X1313Y1400D02*
X1287D01*
X1261Y1393D01*
X1239Y1380D01*
X1220Y1361D01*
X1207Y1339D01*
X1200Y1313D01*
Y1287D01*
X1207Y1261D01*
X1220Y1239D01*
X1239Y1220D01*
X1261Y1207D01*
X1287Y1200D01*
X1313D01*
X1339Y1207D01*
X1361Y1220D01*
X1380Y1239D01*
X1393Y1261D01*
X1400Y1287D01*
Y1313D01*
X1393Y1339D01*
X1380Y1361D01*
X1361Y1380D01*
X1339Y1393D01*
X1313Y1400D01*
D02*
G37*
G36*
X2490Y1351D02*
X2465D01*
X2441Y1344D01*
X2419Y1332D01*
X2401Y1314D01*
X2389Y1293D01*
X2382Y1268D01*
Y1243D01*
X2389Y1219D01*
X2401Y1198D01*
X2419Y1180D01*
X2441Y1167D01*
X2465Y1161D01*
X2490D01*
X2514Y1167D01*
X2536Y1180D01*
X2553Y1198D01*
X2566Y1219D01*
X2572Y1243D01*
Y1268D01*
X2566Y1293D01*
X2553Y1314D01*
X2536Y1332D01*
X2514Y1344D01*
X2490Y1351D01*
D02*
G37*
G36*
X1728D02*
X1703D01*
X1679Y1344D01*
X1657Y1332D01*
X1639Y1314D01*
X1627Y1293D01*
X1620Y1268D01*
Y1243D01*
X1627Y1219D01*
X1639Y1198D01*
X1657Y1180D01*
X1679Y1167D01*
X1703Y1161D01*
X1728D01*
X1752Y1167D01*
X1774Y1180D01*
X1791Y1198D01*
X1804Y1219D01*
X1810Y1243D01*
Y1268D01*
X1804Y1293D01*
X1791Y1314D01*
X1774Y1332D01*
X1752Y1344D01*
X1728Y1351D01*
D02*
G37*
G36*
X5100Y1233D02*
X5013D01*
Y1146D01*
X5013D01*
X5039Y1152D01*
X5062Y1166D01*
X5080Y1184D01*
X5094Y1207D01*
X5100Y1233D01*
Y1233D01*
D02*
G37*
G36*
X4987D02*
X4900D01*
Y1233D01*
X4906Y1207D01*
X4920Y1184D01*
X4938Y1166D01*
X4961Y1152D01*
X4987Y1146D01*
X4987D01*
Y1233D01*
D02*
G37*
G36*
X2490Y1097D02*
X2465D01*
X2441Y1090D01*
X2419Y1078D01*
X2401Y1060D01*
X2389Y1039D01*
X2382Y1014D01*
Y989D01*
X2389Y965D01*
X2401Y944D01*
X2419Y926D01*
X2441Y913D01*
X2465Y907D01*
X2490D01*
X2514Y913D01*
X2536Y926D01*
X2553Y944D01*
X2566Y965D01*
X2572Y989D01*
Y1014D01*
X2566Y1039D01*
X2553Y1060D01*
X2536Y1078D01*
X2514Y1090D01*
X2490Y1097D01*
D02*
G37*
G36*
X6504Y831D02*
X6297D01*
Y624D01*
X6504D01*
Y831D01*
D02*
G37*
G36*
X3913Y640D02*
Y563D01*
X3990D01*
X3984Y585D01*
X3972Y606D01*
X3956Y622D01*
X3935Y634D01*
X3913Y640D01*
D02*
G37*
G36*
X3887D02*
X3865Y634D01*
X3844Y622D01*
X3828Y606D01*
X3816Y585D01*
X3810Y563D01*
X3887D01*
Y640D01*
D02*
G37*
G36*
X6414Y577D02*
X6413D01*
Y486D01*
X6504D01*
Y487D01*
X6497Y513D01*
X6483Y537D01*
X6464Y556D01*
X6440Y570D01*
X6414Y577D01*
D02*
G37*
G36*
X6387D02*
X6386D01*
X6360Y570D01*
X6336Y556D01*
X6317Y537D01*
X6303Y513D01*
X6296Y487D01*
Y486D01*
X6387D01*
Y577D01*
D02*
G37*
G36*
X3990Y537D02*
X3913D01*
Y460D01*
X3935Y466D01*
X3956Y478D01*
X3972Y494D01*
X3984Y515D01*
X3990Y537D01*
D02*
G37*
G36*
X3887D02*
X3810D01*
X3816Y515D01*
X3828Y494D01*
X3844Y478D01*
X3865Y466D01*
X3887Y460D01*
Y537D01*
D02*
G37*
G36*
X6504Y460D02*
X6413D01*
Y369D01*
X6414D01*
X6440Y376D01*
X6464Y390D01*
X6483Y409D01*
X6497Y433D01*
X6504Y459D01*
Y460D01*
D02*
G37*
G36*
X6387D02*
X6296D01*
Y459D01*
X6303Y433D01*
X6317Y409D01*
X6336Y390D01*
X6360Y376D01*
X6386Y369D01*
X6387D01*
Y460D01*
D02*
G37*
%LPD*%
D12*
X727Y4046D02*
X1300D01*
X500Y4273D02*
X727Y4046D01*
X3900Y4050D02*
X5870D01*
X6370Y4550D01*
X3900Y1750D02*
X4496D01*
X5000Y1246D01*
X727Y1046D02*
X1300D01*
X500Y1273D02*
X727Y1046D01*
X2477Y1510D02*
X3014Y2047D01*
X5457D01*
X5870Y1050D02*
X6370Y1550D01*
X3900Y1050D02*
X5870D01*
X4550Y4750D02*
X5000Y4300D01*
X3900Y4750D02*
X4550D01*
X2942Y4988D02*
X5375D01*
X2481Y4527D02*
X2942Y4988D01*
X1521Y4019D02*
X1719D01*
X1494Y4046D02*
X1521Y4019D01*
X1300Y4046D02*
X1494D01*
X1528Y1002D02*
X1715D01*
X1484Y1046D02*
X1528Y1002D01*
X1300Y1046D02*
X1484D01*
D31*
X1715Y1764D02*
D03*
X1719Y4781D02*
D03*
D32*
X1715Y1510D02*
D03*
Y1256D02*
D03*
Y1002D02*
D03*
X2477D02*
D03*
Y1256D02*
D03*
Y1510D02*
D03*
Y1764D02*
D03*
X2481Y4781D02*
D03*
Y4527D02*
D03*
Y4273D02*
D03*
Y4019D02*
D03*
X1719D02*
D03*
Y4273D02*
D03*
Y4527D02*
D03*
D33*
X500D02*
D03*
Y1527D02*
D03*
X6400Y727D02*
D03*
X6400Y3727D02*
D03*
D34*
X3900Y4050D02*
D03*
Y4750D02*
D03*
X3900Y1750D02*
D03*
Y1050D02*
D03*
D35*
X3900Y5250D02*
D03*
X3900Y2250D02*
D03*
Y550D02*
D03*
X3900Y3550D02*
D03*
D39*
X6400Y473D02*
D03*
X500Y1273D02*
D03*
Y4273D02*
D03*
X6400Y3473D02*
D03*
D41*
X6370Y1550D02*
D03*
Y1900D02*
D03*
X6370Y4550D02*
D03*
Y4900D02*
D03*
D42*
X6370Y2250D02*
D03*
X6370Y5250D02*
D03*
D43*
X5000Y1246D02*
D03*
Y1500D02*
D03*
X1300Y1046D02*
D03*
Y1300D02*
D03*
X5000Y4300D02*
D03*
Y4554D02*
D03*
X1300Y4046D02*
D03*
Y4300D02*
D03*
D44*
X5457Y2047D02*
D03*
X5375Y4988D02*
D03*
M02*
