G04*
G04 #@! TF.GenerationSoftware,Altium Limited,Altium Designer,23.1.1 (15)*
G04*
G04 Layer_Color=8421504*
%FSLAX42Y42*%
%MOMM*%
G71*
G04*
G04 #@! TF.SameCoordinates,2A6C1220-FB5B-44CC-9D41-84C089C77491*
G04*
G04*
G04 #@! TF.FilePolarity,Positive*
G04*
G01*
G75*
%ADD16R,1.10X1.65*%
%ADD17R,1.05X0.95*%
%ADD18R,1.55X0.90*%
%ADD19R,0.90X1.55*%
%ADD20R,1.22X0.91*%
%ADD21R,0.90X1.40*%
%ADD22R,2.20X1.40*%
D16*
X5742Y1300D02*
D03*
X5457D02*
D03*
X5742Y4300D02*
D03*
X5457D02*
D03*
D17*
X3100Y4800D02*
D03*
Y4655D02*
D03*
X2800Y4473D02*
D03*
Y4327D02*
D03*
X3100Y1800D02*
D03*
Y1655D02*
D03*
X2800Y1473D02*
D03*
Y1327D02*
D03*
X3100Y1000D02*
D03*
Y1145D02*
D03*
X3100Y3991D02*
D03*
Y4136D02*
D03*
D18*
X900Y4500D02*
D03*
Y4235D02*
D03*
Y1500D02*
D03*
Y1235D02*
D03*
X5000Y3565D02*
D03*
Y3300D02*
D03*
Y5233D02*
D03*
Y4968D02*
D03*
X4600Y5233D02*
D03*
Y4967D02*
D03*
X5000Y335D02*
D03*
Y600D02*
D03*
X4600Y1967D02*
D03*
Y2233D02*
D03*
X5000Y1968D02*
D03*
Y2233D02*
D03*
D19*
X1168Y4700D02*
D03*
X1433D02*
D03*
X1168Y1700D02*
D03*
X1433D02*
D03*
D20*
X4600Y3627D02*
D03*
Y3300D02*
D03*
X5500Y300D02*
D03*
Y627D02*
D03*
X5900D02*
D03*
Y300D02*
D03*
X4600Y337D02*
D03*
Y664D02*
D03*
X5900Y3627D02*
D03*
Y3300D02*
D03*
X5500D02*
D03*
Y3627D02*
D03*
D21*
X5761Y4804D02*
D03*
X5760Y1800D02*
D03*
D22*
X5506Y4804D02*
D03*
X5505Y1800D02*
D03*
M02*
