G04*
G04 #@! TF.GenerationSoftware,Altium Limited,Altium Designer,23.1.1 (15)*
G04*
G04 Layer_Color=8388736*
%FSLAX42Y42*%
%MOMM*%
G71*
G04*
G04 #@! TF.SameCoordinates,2A6C1220-FB5B-44CC-9D41-84C089C77491*
G04*
G04*
G04 #@! TF.FilePolarity,Positive*
G04*
G01*
G75*
%ADD11C,0.15*%
%ADD12C,0.20*%
%ADD15C,0.10*%
D11*
X4425Y5000D02*
G03*
X4425Y5000I-525J0D01*
G01*
Y2000D02*
G03*
X4425Y2000I-525J0D01*
G01*
Y800D02*
G03*
X4425Y800I-525J0D01*
G01*
Y3800D02*
G03*
X4425Y3800I-525J0D01*
G01*
D12*
X1766Y1885D02*
X2426D01*
Y880D02*
Y1885D01*
X1766Y880D02*
X2426D01*
X1766D02*
Y1885D01*
X6534Y327D02*
Y873D01*
X6267Y327D02*
X6534D01*
X6267D02*
Y873D01*
X6534D01*
X634Y1127D02*
Y1673D01*
X366Y1127D02*
X634D01*
X366D02*
Y1673D01*
X634D01*
X1770Y3898D02*
Y4902D01*
Y3898D02*
X2430D01*
Y4902D01*
X1770D02*
X2430D01*
X634Y4127D02*
Y4673D01*
X366Y4127D02*
X634D01*
X366D02*
Y4673D01*
X634D01*
X6534Y3327D02*
Y3873D01*
X6266Y3327D02*
X6534D01*
X6266D02*
Y3873D01*
X6534D01*
D15*
X6138Y2425D02*
X6662D01*
X6712D02*
X6770D01*
X6654Y2465D02*
X6720D01*
X6712Y2425D02*
X6720Y2465D01*
X6654D02*
X6662Y2425D01*
X6030D02*
X6088D01*
X6138D02*
X6146Y2465D01*
X6081D02*
X6088Y2425D01*
X6081Y2465D02*
X6146D01*
X6030Y1375D02*
X6770D01*
X6030D02*
Y2425D01*
X6770Y1375D02*
Y2425D01*
X6138Y5425D02*
X6662D01*
X6712D02*
X6770D01*
X6655Y5465D02*
X6720D01*
X6712Y5425D02*
X6720Y5465D01*
X6655D02*
X6662Y5425D01*
X6030D02*
X6088D01*
X6138D02*
X6146Y5465D01*
X6081D02*
X6088Y5425D01*
X6081Y5465D02*
X6146D01*
X6030Y4375D02*
X6770D01*
X6030D02*
Y5425D01*
X6770Y4375D02*
Y5425D01*
M02*
